<?xml version="1.0" encoding="UTF-8"?>
<!DOCTYPE svg PUBLIC "-//W3C//DTD SVG 1.1//EN" "http://www.w3.org/Graphics/SVG/1.1/DTD/svg11.dtd">
<svg xmlns="http://www.w3.org/2000/svg" version="1.1" width="592px" height="558px" style="shape-rendering:geometricPrecision; text-rendering:geometricPrecision; image-rendering:optimizeQuality; fill-rule:evenodd; clip-rule:evenodd" xmlns:xlink="http://www.w3.org/1999/xlink">
<g><path style="opacity:1" fill="#8ca4b3" d="M 355.5,99.5 C 328.165,99.3334 300.831,99.5 273.5,100C 272.944,100.383 272.611,100.883 272.5,101.5C 264.167,101.5 255.833,101.5 247.5,101.5C 239.167,101.5 230.833,101.5 222.5,101.5C 212.167,101.5 201.833,101.5 191.5,101.5C 190.504,101.586 189.671,101.252 189,100.5C 188.517,101.448 188.351,102.448 188.5,103.5C 188.5,106.167 188.5,108.833 188.5,111.5C 188.667,148.502 188.5,185.502 188,222.5C 187.832,196.33 187.332,170.33 186.5,144.5C 185.968,131.981 185.635,119.315 185.5,106.5C 185.782,103.869 186.449,101.369 187.5,99C 243.668,98.1682 299.668,98.3348 355.5,99.5 Z"/></g>
<g><path style="opacity:1" fill="#598190" d="M 355.5,99.5 C 356.75,99.5774 357.583,100.244 358,101.5C 358.333,108.833 358.667,116.167 359,123.5C 359.671,124.252 360.504,124.586 361.5,124.5C 361.082,125.222 360.416,125.722 359.5,126C 366.826,126.5 374.159,126.666 381.5,126.5C 381.5,127.5 381.5,128.5 381.5,129.5C 373.833,129.5 366.167,129.5 358.5,129.5C 358.5,128.5 358.5,127.5 358.5,126.5C 357.566,118.889 357.233,111.222 357.5,103.5C 357.167,102.5 356.5,101.833 355.5,101.5C 355.5,100.833 355.167,100.5 354.5,100.5C 338.452,100.197 322.452,100.53 306.5,101.5C 295.167,101.5 283.833,101.5 272.5,101.5C 272.611,100.883 272.944,100.383 273.5,100C 300.831,99.5 328.165,99.3334 355.5,99.5 Z"/></g>
<g><path style="opacity:1" fill="#396787" d="M 354.5,100.5 C 347.31,107.855 340.31,115.355 333.5,123C 317.837,123.5 302.17,123.667 286.5,123.5C 297.988,122.505 309.655,122.172 321.5,122.5C 322.384,116.807 321.218,115.807 318,119.5C 316.986,115.901 316.153,112.235 315.5,108.5C 314.749,109.376 314.249,110.376 314,111.5C 313.46,108.639 312.46,105.972 311,103.5C 310.333,106.167 309.667,106.167 309,103.5C 308.667,106.167 308.333,108.833 308,111.5C 307.667,111.167 307.333,110.833 307,110.5C 306.197,115.273 304.03,116.94 300.5,115.5C 301.833,114.5 303.167,113.5 304.5,112.5C 304.835,109.952 305.335,107.285 306,104.5C 304.615,105.551 303.615,106.884 303,108.5C 301.488,107.743 300.154,106.743 299,105.5C 298.026,107.878 297.359,107.544 297,104.5C 293.903,105.289 293.736,106.456 296.5,108C 295.442,113.395 293.276,113.895 290,109.5C 289.365,108.034 288.531,106.7 287.5,105.5C 288.736,104.643 290.069,103.977 291.5,103.5C 292.308,105.423 292.808,107.423 293,109.5C 292.056,103.674 294.222,101.674 299.5,103.5C 301.982,102.933 304.316,102.266 306.5,101.5C 322.452,100.53 338.452,100.197 354.5,100.5 Z"/></g>
<g><path style="opacity:1" fill="#548baa" d="M 191.5,101.5 C 201.833,101.5 212.167,101.5 222.5,101.5C 218.787,103.027 214.787,104.027 210.5,104.5C 212.485,104.604 213.985,105.937 215,108.5C 215.915,107.672 216.581,106.672 217,105.5C 217.667,108.167 218.333,108.167 219,105.5C 219.5,107 220,108.5 220.5,110C 219.852,111.44 219.519,112.94 219.5,114.5C 222.909,115.736 225.742,114.736 228,111.5C 228.471,114.594 230.304,116.261 233.5,116.5C 233.833,117.167 234.167,117.833 234.5,118.5C 232.748,120.002 230.748,121.002 228.5,121.5C 226.003,120.87 223.503,120.537 221,120.5C 219.541,120.808 218.374,121.475 217.5,122.5C 216.167,122.5 214.833,122.5 213.5,122.5C 205.508,116.174 198.175,109.174 191.5,101.5 Z"/></g>
<g><path style="opacity:1" fill="#5288a8" d="M 222.5,101.5 C 230.833,101.5 239.167,101.5 247.5,101.5C 247.082,102.222 246.416,102.722 245.5,103C 246.793,103.49 248.127,103.657 249.5,103.5C 249.337,105.857 249.503,108.19 250,110.5C 250.333,108.833 250.667,107.167 251,105.5C 251.942,109.468 252.775,113.468 253.5,117.5C 254.328,112.868 254.828,108.202 255,103.5C 255.667,106.167 256.333,106.167 257,103.5C 256.543,109.025 257.043,114.525 258.5,120C 257.748,120.671 257.414,121.504 257.5,122.5C 244.167,122.5 230.833,122.5 217.5,122.5C 218.374,121.475 219.541,120.808 221,120.5C 223.503,120.537 226.003,120.87 228.5,121.5C 230.748,121.002 232.748,120.002 234.5,118.5C 234.167,117.833 233.833,117.167 233.5,116.5C 230.304,116.261 228.471,114.594 228,111.5C 225.742,114.736 222.909,115.736 219.5,114.5C 219.519,112.94 219.852,111.44 220.5,110C 220,108.5 219.5,107 219,105.5C 218.333,108.167 217.667,108.167 217,105.5C 216.581,106.672 215.915,107.672 215,108.5C 213.985,105.937 212.485,104.604 210.5,104.5C 214.787,104.027 218.787,103.027 222.5,101.5 Z"/></g>
<g><path style="opacity:1" fill="#497d9e" d="M 247.5,101.5 C 255.833,101.5 264.167,101.5 272.5,101.5C 273.119,104.534 273.953,107.534 275,110.5C 275.311,107.568 275.478,104.902 275.5,102.5C 276.461,105.941 277.628,109.274 279,112.5C 279.822,110.212 280.489,107.878 281,105.5C 281.825,109.211 281.659,112.878 280.5,116.5C 279.833,117.167 279.167,117.833 278.5,118.5C 277.686,116.234 277.186,113.9 277,111.5C 276.503,114.146 276.336,116.813 276.5,119.5C 277.552,119.351 278.552,119.517 279.5,120C 278.167,120.667 278.167,121.333 279.5,122C 272.174,122.5 264.841,122.666 257.5,122.5C 257.414,121.504 257.748,120.671 258.5,120C 257.043,114.525 256.543,109.025 257,103.5C 256.333,106.167 255.667,106.167 255,103.5C 254.828,108.202 254.328,112.868 253.5,117.5C 252.775,113.468 251.942,109.468 251,105.5C 250.667,107.167 250.333,108.833 250,110.5C 249.503,108.19 249.337,105.857 249.5,103.5C 248.127,103.657 246.793,103.49 245.5,103C 246.416,102.722 247.082,102.222 247.5,101.5 Z"/></g>
<g><path style="opacity:1" fill="#437494" d="M 272.5,101.5 C 283.833,101.5 295.167,101.5 306.5,101.5C 304.316,102.266 301.982,102.933 299.5,103.5C 294.222,101.674 292.056,103.674 293,109.5C 292.808,107.423 292.308,105.423 291.5,103.5C 290.069,103.977 288.736,104.643 287.5,105.5C 288.531,106.7 289.365,108.034 290,109.5C 293.276,113.895 295.442,113.395 296.5,108C 293.736,106.456 293.903,105.289 297,104.5C 297.359,107.544 298.026,107.878 299,105.5C 300.154,106.743 301.488,107.743 303,108.5C 303.615,106.884 304.615,105.551 306,104.5C 305.335,107.285 304.835,109.952 304.5,112.5C 303.167,113.5 301.833,114.5 300.5,115.5C 304.03,116.94 306.197,115.273 307,110.5C 307.333,110.833 307.667,111.167 308,111.5C 308.333,108.833 308.667,106.167 309,103.5C 309.667,106.167 310.333,106.167 311,103.5C 312.46,105.972 313.46,108.639 314,111.5C 314.249,110.376 314.749,109.376 315.5,108.5C 316.153,112.235 316.986,115.901 318,119.5C 321.218,115.807 322.384,116.807 321.5,122.5C 309.655,122.172 297.988,122.505 286.5,123.5C 262.167,123.5 237.833,123.5 213.5,123.5C 213.5,123.167 213.5,122.833 213.5,122.5C 214.833,122.5 216.167,122.5 217.5,122.5C 230.833,122.5 244.167,122.5 257.5,122.5C 264.841,122.666 272.174,122.5 279.5,122C 278.167,121.333 278.167,120.667 279.5,120C 278.552,119.517 277.552,119.351 276.5,119.5C 276.336,116.813 276.503,114.146 277,111.5C 277.186,113.9 277.686,116.234 278.5,118.5C 279.167,117.833 279.833,117.167 280.5,116.5C 281.659,112.878 281.825,109.211 281,105.5C 280.489,107.878 279.822,110.212 279,112.5C 277.628,109.274 276.461,105.941 275.5,102.5C 275.478,104.902 275.311,107.568 275,110.5C 273.953,107.534 273.119,104.534 272.5,101.5 Z"/></g>
<g><path style="opacity:1" fill="#284d6c" d="M 355.5,101.5 C 356.5,101.833 357.167,102.5 357.5,103.5C 356.669,119.328 356.169,135.328 356,151.5C 355.617,150.944 355.117,150.611 354.5,150.5C 348.241,142.234 341.574,134.234 334.5,126.5C 341.754,118.29 348.754,109.956 355.5,101.5 Z"/></g>
<g><path style="opacity:1" fill="#05203b" d="M 354.5,100.5 C 355.167,100.5 355.5,100.833 355.5,101.5C 348.754,109.956 341.754,118.29 334.5,126.5C 341.574,134.234 348.241,142.234 354.5,150.5C 354.103,151.525 353.437,151.692 352.5,151C 345.802,143.747 339.469,136.247 333.5,128.5C 333.5,127.5 333.5,126.5 333.5,125.5C 293.459,125.512 253.626,125.512 214,125.5C 213.502,128.482 213.335,131.482 213.5,134.5C 213.167,134.5 212.833,134.5 212.5,134.5C 212.244,130.731 212.577,127.064 213.5,123.5C 237.833,123.5 262.167,123.5 286.5,123.5C 302.17,123.667 317.837,123.5 333.5,123C 340.31,115.355 347.31,107.855 354.5,100.5 Z"/></g>
<g><path style="opacity:1" fill="#030d21" d="M 333.5,128.5 C 333.167,128.5 332.833,128.5 332.5,128.5C 294.663,128.168 256.996,128.502 219.5,129.5C 219.5,129.833 219.5,130.167 219.5,130.5C 217.535,137.76 216.868,145.427 217.5,153.5C 216.849,152.909 216.182,152.243 215.5,151.5C 214.667,194.829 214.167,238.163 214,281.5C 213.5,232.501 213.333,183.501 213.5,134.5C 213.335,131.482 213.502,128.482 214,125.5C 253.626,125.512 293.459,125.512 333.5,125.5C 333.5,126.5 333.5,127.5 333.5,128.5 Z"/></g>
<g><path style="opacity:1" fill="#53667e" d="M 219.5,129.5 C 256.996,128.502 294.663,128.168 332.5,128.5C 323.682,129.493 314.682,129.827 305.5,129.5C 304.167,129.5 302.833,129.5 301.5,129.5C 274.839,130.214 248.173,130.548 221.5,130.5C 220.833,130.167 220.167,129.833 219.5,129.5 Z"/></g>
<g><path style="opacity:1" fill="#1b4465" d="M 301.5,129.5 C 297.573,130.138 293.573,130.971 289.5,132C 288.359,132.741 288.359,133.575 289.5,134.5C 286.956,135.937 286.956,137.437 289.5,139C 288.366,140.016 288.699,140.683 290.5,141C 287.833,142 287.833,143 290.5,144C 289.333,144.5 288.5,145.333 288,146.5C 285.978,145.009 284.312,145.342 283,147.5C 282.667,146.833 282.333,146.167 282,145.5C 281.588,150.357 282.588,150.69 285,146.5C 285.333,148.167 285.667,149.833 286,151.5C 289.154,151.318 290.82,149.318 291,145.5C 291.662,147.813 292.162,150.146 292.5,152.5C 276.5,152.5 260.5,152.5 244.5,152.5C 236.399,145.645 228.733,138.312 221.5,130.5C 248.173,130.548 274.839,130.214 301.5,129.5 Z"/></g>
<g><path style="opacity:1" fill="#174264" d="M 301.5,129.5 C 302.833,129.5 304.167,129.5 305.5,129.5C 306.568,130.434 307.901,130.768 309.5,130.5C 308.833,132.167 308.167,133.833 307.5,135.5C 308.822,135.33 309.989,135.663 311,136.5C 312.11,134.963 313.61,134.297 315.5,134.5C 315.351,135.552 315.517,136.552 316,137.5C 317.55,133.636 319.05,133.636 320.5,137.5C 321.086,137.291 321.586,136.957 322,136.5C 322.624,138.703 322.124,140.703 320.5,142.5C 322.912,144.335 325.412,145.002 328,144.5C 330.43,148.477 332.43,148.144 334,143.5C 334.739,145.221 335.573,146.887 336.5,148.5C 337.478,148.023 338.311,147.357 339,146.5C 340,147.833 341,147.833 342,146.5C 343.141,148.609 344.641,150.442 346.5,152C 344.121,154.148 341.955,153.982 340,151.5C 336.543,150.858 333.21,151.524 330,153.5C 317.58,152.511 305.08,152.178 292.5,152.5C 292.162,150.146 291.662,147.813 291,145.5C 290.82,149.318 289.154,151.318 286,151.5C 285.667,149.833 285.333,148.167 285,146.5C 282.588,150.69 281.588,150.357 282,145.5C 282.333,146.167 282.667,146.833 283,147.5C 284.312,145.342 285.978,145.009 288,146.5C 288.5,145.333 289.333,144.5 290.5,144C 287.833,143 287.833,142 290.5,141C 288.699,140.683 288.366,140.016 289.5,139C 286.956,137.437 286.956,135.937 289.5,134.5C 288.359,133.575 288.359,132.741 289.5,132C 293.573,130.971 297.573,130.138 301.5,129.5 Z"/></g>
<g><path style="opacity:1" fill="#153b57" d="M 357.5,103.5 C 357.233,111.222 357.566,118.889 358.5,126.5C 357.766,131.766 357.766,137.432 358.5,143.5C 358.5,147.167 358.5,150.833 358.5,154.5C 357.041,154.433 355.708,154.766 354.5,155.5C 346.455,155.359 337.788,155.359 328.5,155.5C 327.048,154.698 325.382,154.198 323.5,154C 296.997,153.832 270.663,153.332 244.5,152.5C 260.5,152.5 276.5,152.5 292.5,152.5C 305.08,152.178 317.58,152.511 330,153.5C 333.21,151.524 336.543,150.858 340,151.5C 341.955,153.982 344.121,154.148 346.5,152C 344.641,150.442 343.141,148.609 342,146.5C 341,147.833 340,147.833 339,146.5C 338.311,147.357 337.478,148.023 336.5,148.5C 335.573,146.887 334.739,145.221 334,143.5C 332.43,148.144 330.43,148.477 328,144.5C 325.412,145.002 322.912,144.335 320.5,142.5C 322.124,140.703 322.624,138.703 322,136.5C 321.586,136.957 321.086,137.291 320.5,137.5C 319.05,133.636 317.55,133.636 316,137.5C 315.517,136.552 315.351,135.552 315.5,134.5C 313.61,134.297 312.11,134.963 311,136.5C 309.989,135.663 308.822,135.33 307.5,135.5C 308.167,133.833 308.833,132.167 309.5,130.5C 307.901,130.768 306.568,130.434 305.5,129.5C 314.682,129.827 323.682,129.493 332.5,128.5C 332.833,128.5 333.167,128.5 333.5,128.5C 339.469,136.247 345.802,143.747 352.5,151C 353.437,151.692 354.103,151.525 354.5,150.5C 355.117,150.611 355.617,150.944 356,151.5C 356.169,135.328 356.669,119.328 357.5,103.5 Z"/></g>
<g><path style="opacity:1" fill="#4f88aa" d="M 188.5,103.5 C 193.079,106.407 197.079,110.074 200.5,114.5C 199.533,115.806 198.199,116.473 196.5,116.5C 195.455,117.194 196.122,119.361 198.5,123C 197.107,124.171 196.273,125.671 196,127.5C 195.333,124.833 194.667,124.833 194,127.5C 193.039,132.443 193.205,135.11 194.5,135.5C 195.5,135.5 196.5,135.5 197.5,135.5C 197.5,137.167 197.5,138.833 197.5,140.5C 196.448,140.351 195.448,140.517 194.5,141C 195.973,141.71 196.64,142.876 196.5,144.5C 197.873,144.657 199.207,144.49 200.5,144C 197.999,141.601 197.999,139.101 200.5,136.5C 199.708,134.805 200.042,133.138 201.5,131.5C 202.281,132.729 202.781,134.062 203,135.5C 203.743,133.559 203.576,131.726 202.5,130C 203.872,129.598 205.205,129.098 206.5,128.5C 206.713,130.273 207.379,132.273 208.5,134.5C 208.503,137.602 208.003,137.935 207,135.5C 206.32,137.976 207.153,139.809 209.5,141C 207.486,142.683 205.82,144.683 204.5,147C 205.308,147.308 205.975,147.808 206.5,148.5C 205.959,150.535 205.292,152.535 204.5,154.5C 203.031,151.702 202.198,148.702 202,145.5C 201.703,148.914 201.036,152.247 200,155.5C 197.732,152.915 196.566,149.915 196.5,146.5C 194.408,146.561 192.908,147.561 192,149.5C 191.925,147.065 191.092,146.398 189.5,147.5C 189.551,135.296 189.884,123.462 190.5,112C 189.906,111.536 189.239,111.369 188.5,111.5C 188.5,108.833 188.5,106.167 188.5,103.5 Z"/></g>
<g><path style="opacity:1" fill="#1d4f52" d="M 358.5,126.5 C 358.5,127.5 358.5,128.5 358.5,129.5C 366.167,129.5 373.833,129.5 381.5,129.5C 382.558,131.749 383.891,133.915 385.5,136C 384.517,138.15 383.184,139.983 381.5,141.5C 374.352,140.508 367.019,140.175 359.5,140.5C 359.737,141.791 359.404,142.791 358.5,143.5C 357.766,137.432 357.766,131.766 358.5,126.5 Z"/></g>
<g><path style="opacity:1" fill="#79cacb" d="M 413.5,143.5 C 413.666,138.821 413.499,134.155 413,129.5C 412.626,131.491 411.793,133.158 410.5,134.5C 413.648,118.05 406.981,111.216 390.5,114C 383.024,121.323 382.691,128.323 389.5,135C 388.619,135.708 387.953,136.542 387.5,137.5C 381.243,145.601 374.743,153.601 368,161.5C 367.195,164.696 367.362,167.696 368.5,170.5C 369.519,172.54 369.519,174.54 368.5,176.5C 366.723,173.552 364.223,171.552 361,170.5C 352.21,180.777 344.044,191.444 336.5,202.5C 336.167,202.5 335.833,202.5 335.5,202.5C 332.975,201.952 330.641,200.952 328.5,199.5C 317.286,200.927 311.62,207.261 311.5,218.5C 311.167,218.5 310.833,218.5 310.5,218.5C 309.699,216.958 309.366,215.292 309.5,213.5C 310.232,206.583 313.899,201.749 320.5,199C 325.535,198.582 330.535,198.582 335.5,199C 342.716,189.957 349.716,180.79 356.5,171.5C 358.714,170.608 359.714,168.942 359.5,166.5C 358.107,162.714 356.44,159.047 354.5,155.5C 355.708,154.766 357.041,154.433 358.5,154.5C 359.951,156.791 361.618,158.957 363.5,161C 364.167,161.667 364.833,161.667 365.5,161C 370.698,154.311 376.031,147.811 381.5,141.5C 383.184,139.983 384.517,138.15 385.5,136C 383.891,133.915 382.558,131.749 381.5,129.5C 381.5,128.5 381.5,127.5 381.5,126.5C 374.159,126.666 366.826,126.5 359.5,126C 360.416,125.722 361.082,125.222 361.5,124.5C 368.012,123.833 374.679,123.167 381.5,122.5C 385.553,113.521 392.553,109.688 402.5,111C 408,113.167 411.833,117 414,122.5C 414.821,129.679 414.655,136.679 413.5,143.5 Z"/></g>
<g><path style="opacity:1" fill="#40cccb" d="M 410.5,134.5 C 407.556,136.311 404.556,138.144 401.5,140C 396.457,140.956 391.79,140.122 387.5,137.5C 387.953,136.542 388.619,135.708 389.5,135C 382.691,128.323 383.024,121.323 390.5,114C 406.981,111.216 413.648,118.05 410.5,134.5 Z"/></g>
<g><path style="opacity:1" fill="#194d47" d="M 413.5,143.5 C 413.02,146.005 412.02,148.338 410.5,150.5C 407.365,153.659 404.032,156.326 400.5,158.5C 399.385,153.25 399.219,147.917 400,142.5C 405.133,141.855 408.633,139.188 410.5,134.5C 411.793,133.158 412.626,131.491 413,129.5C 413.499,134.155 413.666,138.821 413.5,143.5 Z"/></g>
<g><path style="opacity:1" fill="#0b263f" d="M 219.5,129.5 C 220.167,129.833 220.833,130.167 221.5,130.5C 228.733,138.312 236.399,145.645 244.5,152.5C 270.663,153.332 296.997,153.832 323.5,154C 325.382,154.198 327.048,154.698 328.5,155.5C 325.5,155.5 322.5,155.5 319.5,155.5C 294.125,155.429 268.792,155.095 243.5,154.5C 242.892,159.944 243.558,164.944 245.5,169.5C 245.5,175.167 245.5,180.833 245.5,186.5C 244.833,186.833 244.167,187.167 243.5,187.5C 243.333,176.154 242.833,164.821 242,153.5C 234.937,145.934 227.437,138.934 219.5,132.5C 219.5,131.833 219.5,131.167 219.5,130.5C 219.5,130.167 219.5,129.833 219.5,129.5 Z"/></g>
<g><path style="opacity:1" fill="#3b6e90" d="M 219.5,132.5 C 227.437,138.934 234.937,145.934 242,153.5C 242.833,164.821 243.333,176.154 243.5,187.5C 240.497,190.608 237.164,193.441 233.5,196C 232.748,196.671 232.414,197.504 232.5,198.5C 228.227,201.596 224.06,204.93 220,208.5C 219.5,183.169 219.333,157.836 219.5,132.5 Z"/></g>
<g><path style="opacity:1" fill="#5690b1" d="M 200.5,114.5 C 203.742,117.399 207.075,120.399 210.5,123.5C 211.499,137.15 211.833,150.817 211.5,164.5C 210.71,163.391 210.21,162.058 210,160.5C 209.667,162.167 209.333,163.833 209,165.5C 207.512,164.804 206.012,165.138 204.5,166.5C 203.045,168.22 202.212,170.22 202,172.5C 201,173.833 200,173.833 199,172.5C 197.623,174.754 196.123,176.92 194.5,179C 194.805,183.03 194.972,187.197 195,191.5C 193.908,186.86 192.908,182.193 192,177.5C 191.722,178.416 191.222,179.082 190.5,179.5C 189.546,168.885 189.213,158.218 189.5,147.5C 191.092,146.398 191.925,147.065 192,149.5C 192.908,147.561 194.408,146.561 196.5,146.5C 196.566,149.915 197.732,152.915 200,155.5C 201.036,152.247 201.703,148.914 202,145.5C 202.198,148.702 203.031,151.702 204.5,154.5C 205.292,152.535 205.959,150.535 206.5,148.5C 205.975,147.808 205.308,147.308 204.5,147C 205.82,144.683 207.486,142.683 209.5,141C 207.153,139.809 206.32,137.976 207,135.5C 208.003,137.935 208.503,137.602 208.5,134.5C 207.379,132.273 206.713,130.273 206.5,128.5C 205.205,129.098 203.872,129.598 202.5,130C 203.576,131.726 203.743,133.559 203,135.5C 202.781,134.062 202.281,132.729 201.5,131.5C 200.042,133.138 199.708,134.805 200.5,136.5C 197.999,139.101 197.999,141.601 200.5,144C 199.207,144.49 197.873,144.657 196.5,144.5C 196.64,142.876 195.973,141.71 194.5,141C 195.448,140.517 196.448,140.351 197.5,140.5C 197.5,138.833 197.5,137.167 197.5,135.5C 196.5,135.5 195.5,135.5 194.5,135.5C 193.205,135.11 193.039,132.443 194,127.5C 194.667,124.833 195.333,124.833 196,127.5C 196.273,125.671 197.107,124.171 198.5,123C 196.122,119.361 195.455,117.194 196.5,116.5C 198.199,116.473 199.533,115.806 200.5,114.5 Z"/></g>
<g><path style="opacity:1" fill="#01111f" d="M 319.5,155.5 C 318.5,155.5 317.5,155.5 316.5,155.5C 316.5,156.5 316.5,157.5 316.5,158.5C 320.449,158.693 320.449,159.193 316.5,160C 319.498,162.808 318.831,164.141 314.5,164C 317.345,164.538 320.012,165.538 322.5,167C 300.33,167.168 278.33,167.668 256.5,168.5C 252.57,166.952 248.903,167.285 245.5,169.5C 243.558,164.944 242.892,159.944 243.5,154.5C 268.792,155.095 294.125,155.429 319.5,155.5 Z"/></g>
<g><path style="opacity:1" fill="#6b8ca0" d="M 188.5,111.5 C 189.239,111.369 189.906,111.536 190.5,112C 189.884,123.462 189.551,135.296 189.5,147.5C 189.213,158.218 189.546,168.885 190.5,179.5C 190.686,186.028 190.352,192.528 189.5,199C 190.105,202.857 190.772,206.69 191.5,210.5C 190.883,210.389 190.383,210.056 190,209.5C 189.333,215.833 189.333,222.167 190,228.5C 190.692,229.025 191.192,229.692 191.5,230.5C 189.716,237.364 189.049,244.364 189.5,251.5C 188.695,269.154 188.362,286.821 188.5,304.5C 188.5,310.5 188.5,316.5 188.5,322.5C 187.291,327.121 187.291,331.787 188.5,336.5C 187.778,336.082 187.278,335.416 187,334.5C 186.667,330.5 186.333,326.5 186,322.5C 185.664,263.13 185.831,203.796 186.5,144.5C 187.332,170.33 187.832,196.33 188,222.5C 188.5,185.502 188.667,148.502 188.5,111.5 Z"/></g>
<g><path style="opacity:1" fill="#082a33" d="M 354.5,155.5 C 356.44,159.047 358.107,162.714 359.5,166.5C 359.714,168.942 358.714,170.608 356.5,171.5C 355.411,169.883 353.744,169.05 351.5,169C 319.835,168.5 288.168,168.333 256.5,168.5C 278.33,167.668 300.33,167.168 322.5,167C 320.012,165.538 317.345,164.538 314.5,164C 318.831,164.141 319.498,162.808 316.5,160C 320.449,159.193 320.449,158.693 316.5,158.5C 316.5,157.5 316.5,156.5 316.5,155.5C 317.5,155.5 318.5,155.5 319.5,155.5C 322.5,155.5 325.5,155.5 328.5,155.5C 337.788,155.359 346.455,155.359 354.5,155.5 Z"/></g>
<g><path style="opacity:1" fill="#5d96b4" d="M 211.5,164.5 C 211.5,176.833 211.5,189.167 211.5,201.5C 210.782,208.19 210.115,215.023 209.5,222C 209.167,222.5 208.833,223 208.5,223.5C 207.749,222.624 207.249,221.624 207,220.5C 206.282,221.451 205.449,221.617 204.5,221C 205.641,220.259 205.641,219.425 204.5,218.5C 207.229,216.633 206.896,215.633 203.5,215.5C 203.664,212.813 203.497,210.146 203,207.5C 202.174,210.793 201.674,214.126 201.5,217.5C 200.5,217.5 199.5,217.5 198.5,217.5C 198.313,219.564 197.813,221.564 197,223.5C 195.956,222.377 195.29,221.044 195,219.5C 194.333,218.167 193.667,218.167 193,219.5C 191.711,216.649 191.211,213.649 191.5,210.5C 190.772,206.69 190.105,202.857 189.5,199C 190.352,192.528 190.686,186.028 190.5,179.5C 191.222,179.082 191.722,178.416 192,177.5C 192.908,182.193 193.908,186.86 195,191.5C 194.972,187.197 194.805,183.03 194.5,179C 196.123,176.92 197.623,174.754 199,172.5C 200,173.833 201,173.833 202,172.5C 202.212,170.22 203.045,168.22 204.5,166.5C 206.012,165.138 207.512,164.804 209,165.5C 209.333,163.833 209.667,162.167 210,160.5C 210.21,162.058 210.71,163.391 211.5,164.5 Z"/></g>
<g><path style="opacity:1" fill="#588aa6" d="M 245.5,186.5 C 264.674,186.17 283.674,186.503 302.5,187.5C 300.473,187.338 298.473,187.505 296.5,188C 297.167,188.333 297.833,188.667 298.5,189C 290.631,189.213 282.798,189.713 275,190.5C 274.055,190.905 273.388,191.572 273,192.5C 273.057,195.972 272.057,198.972 270,201.5C 269,200.167 268,198.833 267,197.5C 266.667,200.5 266.333,203.5 266,206.5C 264.531,203.342 263.531,200.009 263,196.5C 262.044,200.342 261.21,204.175 260.5,208C 261.737,208.232 262.737,208.732 263.5,209.5C 258.5,209.5 253.5,209.5 248.5,209.5C 248.389,208.883 248.056,208.383 247.5,208C 249.094,202.315 249.76,196.482 249.5,190.5C 248.5,190.5 247.5,190.5 246.5,190.5C 246.248,195.519 245.748,200.519 245,205.5C 244.885,200.069 243.885,196.069 242,193.5C 241.149,196.612 239.983,196.946 238.5,194.5C 237.269,195.651 237.269,196.817 238.5,198C 237.258,198.311 236.258,197.811 235.5,196.5C 234.735,197.612 233.735,198.279 232.5,198.5C 232.414,197.504 232.748,196.671 233.5,196C 237.164,193.441 240.497,190.608 243.5,187.5C 244.167,187.167 244.833,186.833 245.5,186.5 Z"/></g>
<g><path style="opacity:1" fill="#497b99" d="M 302.5,187.5 C 303.11,188.391 303.443,189.391 303.5,190.5C 301.833,191.833 300.167,193.167 298.5,194.5C 298.859,192.629 299.859,191.129 301.5,190C 300.833,189.333 300.167,189.333 299.5,190C 294.589,194.406 290.255,199.24 286.5,204.5C 284.114,205.373 282.114,206.873 280.5,209C 274.843,209.499 269.176,209.666 263.5,209.5C 262.737,208.732 261.737,208.232 260.5,208C 261.21,204.175 262.044,200.342 263,196.5C 263.531,200.009 264.531,203.342 266,206.5C 266.333,203.5 266.667,200.5 267,197.5C 268,198.833 269,200.167 270,201.5C 272.057,198.972 273.057,195.972 273,192.5C 273.388,191.572 274.055,190.905 275,190.5C 282.798,189.713 290.631,189.213 298.5,189C 297.833,188.667 297.167,188.333 296.5,188C 298.473,187.505 300.473,187.338 302.5,187.5 Z"/></g>
<g><path style="opacity:1" fill="#175556" d="M 370.5,194.5 C 368.521,191.901 366.521,189.235 364.5,186.5C 363.998,185.479 363.332,185.312 362.5,186C 355.569,193.757 349.236,201.923 343.5,210.5C 342.504,210.586 341.671,210.252 341,209.5C 340.634,207.548 339.801,205.882 338.5,204.5C 345.231,194.262 352.565,184.428 360.5,175C 361.944,174.219 363.277,174.386 364.5,175.5C 369.956,182.912 375.289,190.412 380.5,198C 377.138,200.05 374.805,199.05 373.5,195C 372.552,194.517 371.552,194.351 370.5,194.5 Z"/></g>
<g><path style="opacity:1" fill="#3a8485" d="M 394.5,151.5 C 394.5,167.167 394.5,182.833 394.5,198.5C 392.234,198.141 390.401,198.808 389,200.5C 383.327,192.667 377.494,185.001 371.5,177.5C 370.417,178.365 370.251,179.365 371,180.5C 376.043,188.087 381.21,195.587 386.5,203C 385.624,204.586 384.624,206.086 383.5,207.5C 382.817,207.137 382.15,206.804 381.5,206.5C 376.947,203.457 373.28,199.457 370.5,194.5C 371.552,194.351 372.552,194.517 373.5,195C 374.805,199.05 377.138,200.05 380.5,198C 375.289,190.412 369.956,182.912 364.5,175.5C 363.277,174.386 361.944,174.219 360.5,175C 352.565,184.428 345.231,194.262 338.5,204.5C 337.5,204.167 336.833,203.5 336.5,202.5C 344.044,191.444 352.21,180.777 361,170.5C 364.223,171.552 366.723,173.552 368.5,176.5C 369.519,174.54 369.519,172.54 368.5,170.5C 369.167,170.5 369.833,170.5 370.5,170.5C 370.942,172.726 372.109,175.059 374,177.5C 379.053,183.552 383.719,189.885 388,196.5C 389.356,197.38 390.856,197.714 392.5,197.5C 392.5,184.5 392.5,171.5 392.5,158.5C 393.167,156.167 393.833,153.833 394.5,151.5 Z"/></g>
<g><path style="opacity:1" fill="#5e8fac" d="M 219.5,130.5 C 219.5,131.167 219.5,131.833 219.5,132.5C 219.333,157.836 219.5,183.169 220,208.5C 224.06,204.93 228.227,201.596 232.5,198.5C 233.735,198.279 234.735,197.612 235.5,196.5C 236.258,197.811 237.258,198.311 238.5,198C 237.269,196.817 237.269,195.651 238.5,194.5C 239.983,196.946 241.149,196.612 242,193.5C 243.885,196.069 244.885,200.069 245,205.5C 245.748,200.519 246.248,195.519 246.5,190.5C 247.5,190.5 248.5,190.5 249.5,190.5C 249.76,196.482 249.094,202.315 247.5,208C 248.056,208.383 248.389,208.883 248.5,209.5C 238.167,209.5 227.833,209.5 217.5,209.5C 217.5,190.833 217.5,172.167 217.5,153.5C 216.868,145.427 217.535,137.76 219.5,130.5 Z"/></g>
<g><path style="opacity:1" fill="#52dedd" d="M 335.5,202.5 C 336.031,204.544 337.198,206.211 339,207.5C 341.231,215.55 339.065,221.884 332.5,226.5C 327.129,227.937 321.795,227.77 316.5,226C 314.192,223.872 312.526,221.372 311.5,218.5C 311.62,207.261 317.286,200.927 328.5,199.5C 330.641,200.952 332.975,201.952 335.5,202.5 Z"/></g>
<g><path style="opacity:1" fill="#64bdbf" d="M 405.5,202.5 C 399.872,201.453 395.205,202.953 391.5,207C 392.167,208.667 392.833,210.333 393.5,212C 392.552,212.483 391.552,212.649 390.5,212.5C 388.806,216.867 388.64,221.2 390,225.5C 390.333,224.833 390.667,224.167 391,223.5C 391.907,225.609 393.407,226.942 395.5,227.5C 392.753,227.187 390.086,227.52 387.5,228.5C 381.243,237.346 374.743,246.012 368,254.5C 367.506,256.134 367.34,257.801 367.5,259.5C 367.343,260.873 367.51,262.207 368,263.5C 368.77,264.598 369.603,264.598 370.5,263.5C 370.709,264.922 371.209,266.255 372,267.5C 377.044,272.876 381.711,278.542 386,284.5C 387.776,285.536 389.609,285.536 391.5,284.5C 392.829,279.208 393.496,273.542 393.5,267.5C 393.904,255.5 394.237,243.5 394.5,231.5C 395.222,231.082 395.722,230.416 396,229.5C 396.168,248.338 396.668,267.004 397.5,285.5C 397.631,286.239 397.464,286.906 397,287.5C 394.455,286.203 391.955,286.369 389.5,288C 386.436,290.207 384.436,293.041 383.5,296.5C 382.661,297.641 381.994,298.974 381.5,300.5C 374.189,301.665 366.856,301.831 359.5,301C 364.28,301.108 368.614,300.275 372.5,298.5C 374.738,299.537 377.071,299.703 379.5,299C 380.252,298.329 380.586,297.496 380.5,296.5C 382.755,294.312 383.589,291.646 383,288.5C 379.968,284.641 376.802,280.974 373.5,277.5C 370.931,272.759 367.764,268.426 364,264.5C 362.933,265.191 361.766,265.691 360.5,266C 353.377,274.599 352.877,274.099 359,264.5C 359.667,262.5 359.667,260.5 359,258.5C 352.379,249.99 345.713,241.324 339,232.5C 336.963,230.294 334.797,228.294 332.5,226.5C 339.065,221.884 341.231,215.55 339,207.5C 337.198,206.211 336.031,204.544 335.5,202.5C 335.833,202.5 336.167,202.5 336.5,202.5C 336.833,203.5 337.5,204.167 338.5,204.5C 339.801,205.882 340.634,207.548 341,209.5C 341.671,210.252 342.504,210.586 343.5,210.5C 355.989,211.495 368.656,211.829 381.5,211.5C 381.5,209.833 381.5,208.167 381.5,206.5C 382.15,206.804 382.817,207.137 383.5,207.5C 384.624,206.086 385.624,204.586 386.5,203C 381.21,195.587 376.043,188.087 371,180.5C 370.251,179.365 370.417,178.365 371.5,177.5C 377.494,185.001 383.327,192.667 389,200.5C 390.401,198.808 392.234,198.141 394.5,198.5C 394.5,182.833 394.5,167.167 394.5,151.5C 394.5,148.5 394.5,145.5 394.5,142.5C 395.15,142.196 395.817,141.863 396.5,141.5C 397.5,160.488 397.833,179.488 397.5,198.5C 400.71,198.87 403.377,200.203 405.5,202.5 Z M 384.5,229.5 C 377.523,238.148 370.523,246.814 363.5,255.5C 357.478,248.813 351.478,242.147 345.5,235.5C 344.222,233.201 342.889,230.868 341.5,228.5C 341.833,228.167 342.167,227.833 342.5,227.5C 348.032,228.145 353.532,228.812 359,229.5C 367.333,228.833 375.667,228.167 384,227.5C 384.464,228.094 384.631,228.761 384.5,229.5 Z M 391.5,284.5 C 389.609,285.536 387.776,285.536 386,284.5C 381.711,278.542 377.044,272.876 372,267.5C 371.209,266.255 370.709,264.922 370.5,263.5C 377.494,256.666 383.161,248.832 387.5,240C 386.346,239.086 386.513,238.253 388,237.5C 390.057,238.978 391.39,240.978 392,243.5C 392.48,257.29 392.314,270.957 391.5,284.5 Z"/></g>
<g><path style="opacity:1" fill="#071b2f" d="M 298.5,194.5 C 292.699,200.471 287.033,206.637 281.5,213C 289.511,221.161 296.511,229.995 302.5,239.5C 302.167,239.5 301.833,239.5 301.5,239.5C 295.191,231.204 288.191,223.538 280.5,216.5C 260.674,215.503 240.674,215.17 220.5,215.5C 219.662,215.842 219.328,216.508 219.5,217.5C 217.656,215.721 216.99,213.388 217.5,210.5C 238.836,210.667 260.169,210.5 281.5,210C 283.373,208.296 285.04,206.463 286.5,204.5C 290.255,199.24 294.589,194.406 299.5,190C 300.167,189.333 300.833,189.333 301.5,190C 299.859,191.129 298.859,192.629 298.5,194.5 Z"/></g>
<g><path style="opacity:1" fill="#4acfd1" d="M 405.5,202.5 C 412.108,205.804 414.275,211.137 412,218.5C 408.867,226.146 403.367,229.146 395.5,227.5C 393.407,226.942 391.907,225.609 391,223.5C 390.667,224.167 390.333,224.833 390,225.5C 388.64,221.2 388.806,216.867 390.5,212.5C 391.552,212.649 392.552,212.483 393.5,212C 392.833,210.333 392.167,208.667 391.5,207C 395.205,202.953 399.872,201.453 405.5,202.5 Z"/></g>
<g><path style="opacity:1" fill="#4e667e" d="M 220.5,215.5 C 240.674,215.17 260.674,215.503 280.5,216.5C 279.081,217.451 277.415,217.784 275.5,217.5C 256.803,218.154 238.47,217.487 220.5,215.5 Z"/></g>
<g><path style="opacity:1" fill="#1b425f" d="M 220.5,215.5 C 238.47,217.487 256.803,218.154 275.5,217.5C 275.918,218.222 276.584,218.722 277.5,219C 274.833,219.667 274.833,220.333 277.5,221C 274.738,221.534 274.072,223.368 275.5,226.5C 275.406,228.923 274.906,231.256 274,233.5C 272.847,230.289 272.18,226.956 272,223.5C 271.667,225.833 271.333,228.167 271,230.5C 270.333,231.833 269.667,231.833 269,230.5C 268.667,231.833 268.333,233.167 268,234.5C 267.667,234.167 267.333,233.833 267,233.5C 267.288,230.209 266.788,226.875 265.5,223.5C 264.73,227.394 263.73,231.227 262.5,235C 263.833,237.984 265.667,238.151 268,235.5C 269,236.5 270,237.5 271,238.5C 271.739,237.426 272.739,236.759 274,236.5C 275.333,237.833 276.667,237.833 278,236.5C 278.5,236.667 279,236.833 279.5,237C 278.167,237.667 278.167,238.333 279.5,239C 267.505,239.5 255.505,239.667 243.5,239.5C 237.215,232.548 230.548,225.881 223.5,219.5C 222.635,218.417 221.635,218.251 220.5,219C 222.21,220.651 223.544,222.484 224.5,224.5C 223.957,224.56 223.624,224.893 223.5,225.5C 227.474,228.899 230.14,233.732 231.5,240C 231.333,240.833 231.167,241.667 231,242.5C 228.861,240.194 227.361,237.527 226.5,234.5C 225.833,234.167 225.167,233.833 224.5,233.5C 223.791,235.958 223.791,238.125 224.5,240C 225.893,241.171 226.727,242.671 227,244.5C 227.333,243.833 227.667,243.167 228,242.5C 228.769,245.099 228.602,247.599 227.5,250C 228.744,250.456 229.577,249.956 230,248.5C 231.676,249.061 233.009,250.061 234,251.5C 234.354,255.354 234.854,259.188 235.5,263C 235.065,266.063 234.232,266.23 233,263.5C 232.667,260.833 232.333,258.167 232,255.5C 231.824,258.882 231.324,262.215 230.5,265.5C 230.167,265.333 229.833,265.167 229.5,265C 230.968,260.709 230.635,256.542 228.5,252.5C 228.135,254.846 227.635,257.513 227,260.5C 225.937,261.438 224.77,262.438 223.5,263.5C 222.51,260.553 221.176,257.886 219.5,255.5C 219.5,242.833 219.5,230.167 219.5,217.5C 219.328,216.508 219.662,215.842 220.5,215.5 Z"/></g>
<g><path style="opacity:1" fill="#1f3e59" d="M 303.5,190.5 C 306.041,210.309 306.041,229.976 303.5,249.5C 303.813,245.958 303.479,242.625 302.5,239.5C 296.511,229.995 289.511,221.161 281.5,213C 287.033,206.637 292.699,200.471 298.5,194.5C 300.167,193.167 301.833,191.833 303.5,190.5 Z"/></g>
<g><path style="opacity:1" fill="#1a3e5b" d="M 280.5,216.5 C 288.191,223.538 295.191,231.204 301.5,239.5C 282.167,240.833 262.833,240.833 243.5,239.5C 255.505,239.667 267.505,239.5 279.5,239C 278.167,238.333 278.167,237.667 279.5,237C 279,236.833 278.5,236.667 278,236.5C 276.667,237.833 275.333,237.833 274,236.5C 272.739,236.759 271.739,237.426 271,238.5C 270,237.5 269,236.5 268,235.5C 265.667,238.151 263.833,237.984 262.5,235C 263.73,231.227 264.73,227.394 265.5,223.5C 266.788,226.875 267.288,230.209 267,233.5C 267.333,233.833 267.667,234.167 268,234.5C 268.333,233.167 268.667,231.833 269,230.5C 269.667,231.833 270.333,231.833 271,230.5C 271.333,228.167 271.667,225.833 272,223.5C 272.18,226.956 272.847,230.289 274,233.5C 274.906,231.256 275.406,228.923 275.5,226.5C 274.072,223.368 274.738,221.534 277.5,221C 274.833,220.333 274.833,219.667 277.5,219C 276.584,218.722 275.918,218.222 275.5,217.5C 277.415,217.784 279.081,217.451 280.5,216.5 Z"/></g>
<g><path style="opacity:1" fill="#226464" d="M 384.5,229.5 C 384.631,228.761 384.464,228.094 384,227.5C 375.667,228.167 367.333,228.833 359,229.5C 353.532,228.812 348.032,228.145 342.5,227.5C 342.167,227.833 341.833,228.167 341.5,228.5C 342.889,230.868 344.222,233.201 345.5,235.5C 342.214,232.962 339.881,229.628 338.5,225.5C 339.497,222.838 340.497,220.172 341.5,217.5C 355.154,216.334 368.821,216.167 382.5,217C 383.708,219.914 385.041,222.748 386.5,225.5C 386.332,227.171 385.665,228.504 384.5,229.5 Z"/></g>
<g><path style="opacity:1" fill="#193b58" d="M 224.5,224.5 C 230.742,229.236 236.576,234.569 242,240.5C 243.065,251.476 243.565,262.476 243.5,273.5C 237.205,280.792 230.205,287.459 222.5,293.5C 221.828,292.733 220.995,292.066 220,291.5C 219.79,293.058 219.29,294.391 218.5,295.5C 219.141,282.176 219.474,268.843 219.5,255.5C 221.176,257.886 222.51,260.553 223.5,263.5C 224.77,262.438 225.937,261.438 227,260.5C 227.635,257.513 228.135,254.846 228.5,252.5C 230.635,256.542 230.968,260.709 229.5,265C 229.833,265.167 230.167,265.333 230.5,265.5C 231.324,262.215 231.824,258.882 232,255.5C 232.333,258.167 232.667,260.833 233,263.5C 234.232,266.23 235.065,266.063 235.5,263C 234.854,259.188 234.354,255.354 234,251.5C 233.009,250.061 231.676,249.061 230,248.5C 229.577,249.956 228.744,250.456 227.5,250C 228.602,247.599 228.769,245.099 228,242.5C 227.667,243.167 227.333,243.833 227,244.5C 226.727,242.671 225.893,241.171 224.5,240C 223.791,238.125 223.791,235.958 224.5,233.5C 225.167,233.833 225.833,234.167 226.5,234.5C 227.361,237.527 228.861,240.194 231,242.5C 231.167,241.667 231.333,240.833 231.5,240C 230.14,233.732 227.474,228.899 223.5,225.5C 223.624,224.893 223.957,224.56 224.5,224.5 Z"/></g>
<g><path style="opacity:1" fill="#1f584f" d="M 414.5,228.5 C 413.443,236.231 409.11,241.231 401.5,243.5C 400.883,243.611 400.383,243.944 400,244.5C 399.501,239.511 399.334,234.511 399.5,229.5C 407.169,229.581 412.003,225.914 414,218.5C 414.498,221.817 414.665,225.15 414.5,228.5 Z"/></g>
<g><path style="opacity:1" fill="#113339" d="M 309.5,213.5 C 309.366,215.292 309.699,216.958 310.5,218.5C 311.483,224.851 315.15,228.851 321.5,230.5C 321.014,232.807 321.014,234.973 321.5,237C 319.751,237.785 318.084,238.618 316.5,239.5C 313.494,237.992 311.327,235.659 310,232.5C 308.535,226.031 308.368,219.698 309.5,213.5 Z"/></g>
<g><path style="opacity:1" fill="#265b5c" d="M 347.5,256.5 C 343.336,253.168 339.669,249.335 336.5,245C 331.279,243.768 325.946,243.101 320.5,243C 318.676,242.34 317.343,241.173 316.5,239.5C 318.084,238.618 319.751,237.785 321.5,237C 321.014,234.973 321.014,232.807 321.5,230.5C 323.199,230.34 324.866,230.506 326.5,231C 325.261,234.364 324.594,237.864 324.5,241.5C 326.924,241.808 329.257,241.474 331.5,240.5C 332.09,239.201 333.09,238.368 334.5,238C 332.35,235.445 332.017,232.612 333.5,229.5C 339.467,237.636 345.634,245.636 352,253.5C 352.456,254.744 351.956,255.577 350.5,256C 350.833,256.333 351.167,256.667 351.5,257C 350.181,257.195 348.847,257.028 347.5,256.5 Z"/></g>
<g><path style="opacity:1" fill="#061a27" d="M 243.5,239.5 C 262.833,240.833 282.167,240.833 301.5,239.5C 301.833,239.5 302.167,239.5 302.5,239.5C 303.479,242.625 303.813,245.958 303.5,249.5C 303.67,250.822 303.337,251.989 302.5,253C 283.503,253.5 264.503,253.667 245.5,253.5C 245.5,260.167 245.5,266.833 245.5,273.5C 244.833,273.5 244.167,273.5 243.5,273.5C 243.565,262.476 243.065,251.476 242,240.5C 236.576,234.569 230.742,229.236 224.5,224.5C 223.544,222.484 222.21,220.651 220.5,219C 221.635,218.251 222.635,218.417 223.5,219.5C 230.548,225.881 237.215,232.548 243.5,239.5 Z"/></g>
<g><path style="opacity:1" fill="#307b7d" d="M 310.5,218.5 C 310.833,218.5 311.167,218.5 311.5,218.5C 312.526,221.372 314.192,223.872 316.5,226C 321.795,227.77 327.129,227.937 332.5,226.5C 334.797,228.294 336.963,230.294 339,232.5C 345.713,241.324 352.379,249.99 359,258.5C 359.667,260.5 359.667,262.5 359,264.5C 352.877,274.099 353.377,274.599 360.5,266C 361.766,265.691 362.933,265.191 364,264.5C 367.764,268.426 370.931,272.759 373.5,277.5C 369.842,275.004 366.342,272.337 363,269.5C 360.316,271.04 357.816,272.707 355.5,274.5C 353.735,273.539 351.735,273.205 349.5,273.5C 352.529,272.793 354.195,270.793 354.5,267.5C 352.92,263.336 350.586,259.669 347.5,256.5C 348.847,257.028 350.181,257.195 351.5,257C 351.167,256.667 350.833,256.333 350.5,256C 351.956,255.577 352.456,254.744 352,253.5C 345.634,245.636 339.467,237.636 333.5,229.5C 332.017,232.612 332.35,235.445 334.5,238C 333.09,238.368 332.09,239.201 331.5,240.5C 329.257,241.474 326.924,241.808 324.5,241.5C 324.594,237.864 325.261,234.364 326.5,231C 324.866,230.506 323.199,230.34 321.5,230.5C 315.15,228.851 311.483,224.851 310.5,218.5 Z"/></g>
<g><path style="opacity:1" fill="#4b83a3" d="M 211.5,201.5 C 211.5,223.167 211.5,244.833 211.5,266.5C 210.069,266.119 209.236,265.119 209,263.5C 208.333,265.5 207.667,267.5 207,269.5C 206.044,268.421 205.211,267.255 204.5,266C 203.451,265.508 202.451,265.674 201.5,266.5C 201.261,263.023 200.761,259.357 200,255.5C 198.974,260.785 198.307,266.118 198,271.5C 196.166,265.384 195.166,259.051 195,252.5C 194.667,256.167 194.333,259.833 194,263.5C 193.489,261.122 192.822,258.788 192,256.5C 192.208,261.699 191.875,267.032 191,272.5C 190.829,265.321 190.329,258.321 189.5,251.5C 189.049,244.364 189.716,237.364 191.5,230.5C 191.192,229.692 190.692,229.025 190,228.5C 189.333,222.167 189.333,215.833 190,209.5C 190.383,210.056 190.883,210.389 191.5,210.5C 191.211,213.649 191.711,216.649 193,219.5C 193.667,218.167 194.333,218.167 195,219.5C 195.29,221.044 195.956,222.377 197,223.5C 197.813,221.564 198.313,219.564 198.5,217.5C 199.5,217.5 200.5,217.5 201.5,217.5C 201.674,214.126 202.174,210.793 203,207.5C 203.497,210.146 203.664,212.813 203.5,215.5C 206.896,215.633 207.229,216.633 204.5,218.5C 205.641,219.425 205.641,220.259 204.5,221C 205.449,221.617 206.282,221.451 207,220.5C 207.249,221.624 207.749,222.624 208.5,223.5C 208.833,223 209.167,222.5 209.5,222C 210.115,215.023 210.782,208.19 211.5,201.5 Z"/></g>
<g><path style="opacity:1" fill="#316868" d="M 394.5,231.5 C 394.237,243.5 393.904,255.5 393.5,267.5C 393.496,273.542 392.829,279.208 391.5,284.5C 392.314,270.957 392.48,257.29 392,243.5C 391.39,240.978 390.057,238.978 388,237.5C 386.513,238.253 386.346,239.086 387.5,240C 383.161,248.832 377.494,256.666 370.5,263.5C 369.603,264.598 368.77,264.598 368,263.5C 367.51,262.207 367.343,260.873 367.5,259.5C 375.045,250.767 381.879,241.433 388,231.5C 390.409,227.499 392.575,227.499 394.5,231.5 Z"/></g>
<g><path style="opacity:1" fill="#489695" d="M 410.5,134.5 C 408.633,139.188 405.133,141.855 400,142.5C 399.219,147.917 399.385,153.25 400.5,158.5C 400.168,171.517 400.501,184.517 401.5,197.5C 412.088,200.904 416.754,208.071 415.5,219C 415.498,222.352 415.165,225.518 414.5,228.5C 414.665,225.15 414.498,221.817 414,218.5C 412.003,225.914 407.169,229.581 399.5,229.5C 399.334,234.511 399.501,239.511 400,244.5C 400.383,243.944 400.883,243.611 401.5,243.5C 400.22,257.147 400.22,270.813 401.5,284.5C 411.3,288.254 415.634,295.421 414.5,306C 414.498,309.021 414.164,311.854 413.5,314.5C 413.665,311.15 413.498,307.817 413,304.5C 407.27,317.535 398.437,320.035 386.5,312C 384.343,310.019 382.676,307.686 381.5,305C 373.507,304.5 365.507,304.334 357.5,304.5C 356.157,302.317 356.49,300.317 358.5,298.5C 363.167,298.5 367.833,298.5 372.5,298.5C 368.614,300.275 364.28,301.108 359.5,301C 366.856,301.831 374.189,301.665 381.5,300.5C 381.994,298.974 382.661,297.641 383.5,296.5C 384.445,299.14 384.612,301.806 384,304.5C 386.961,307.296 389.794,310.296 392.5,313.5C 401.392,316.071 407.559,313.071 411,304.5C 412.111,294.119 407.611,287.786 397.5,285.5C 396.668,267.004 396.168,248.338 396,229.5C 395.722,230.416 395.222,231.082 394.5,231.5C 392.575,227.499 390.409,227.499 388,231.5C 381.879,241.433 375.045,250.767 367.5,259.5C 367.34,257.801 367.506,256.134 368,254.5C 374.743,246.012 381.243,237.346 387.5,228.5C 390.086,227.52 392.753,227.187 395.5,227.5C 403.367,229.146 408.867,226.146 412,218.5C 414.275,211.137 412.108,205.804 405.5,202.5C 403.377,200.203 400.71,198.87 397.5,198.5C 397.833,179.488 397.5,160.488 396.5,141.5C 395.817,141.863 395.15,142.196 394.5,142.5C 392.863,141.62 391.03,140.954 389,140.5C 386.719,141.776 384.719,143.443 383,145.5C 378.719,152.115 374.053,158.448 369,164.5C 368.505,166.473 368.338,168.473 368.5,170.5C 367.362,167.696 367.195,164.696 368,161.5C 374.743,153.601 381.243,145.601 387.5,137.5C 391.79,140.122 396.457,140.956 401.5,140C 404.556,138.144 407.556,136.311 410.5,134.5 Z"/></g>
<g><path style="opacity:1" fill="#1b5352" d="M 394.5,142.5 C 394.5,145.5 394.5,148.5 394.5,151.5C 393.833,153.833 393.167,156.167 392.5,158.5C 392.035,155.527 390.368,154.36 387.5,155C 383.656,157.422 379.99,160.089 376.5,163C 373.906,165.086 371.906,167.586 370.5,170.5C 369.833,170.5 369.167,170.5 368.5,170.5C 368.338,168.473 368.505,166.473 369,164.5C 374.053,158.448 378.719,152.115 383,145.5C 384.719,143.443 386.719,141.776 389,140.5C 391.03,140.954 392.863,141.62 394.5,142.5 Z"/></g>
<g><path style="opacity:1" fill="#1b5054" d="M 373.5,277.5 C 376.802,280.974 379.968,284.641 383,288.5C 383.589,291.646 382.755,294.312 380.5,296.5C 380.54,293.575 379.707,290.909 378,288.5C 373.289,284.12 368.289,280.12 363,276.5C 361.667,277.833 360.333,279.167 359,280.5C 357.711,286.088 357.211,291.755 357.5,297.5C 356.045,291.348 356.378,285.181 358.5,279C 358.026,277.271 357.026,276.105 355.5,275.5C 355.5,275.167 355.5,274.833 355.5,274.5C 357.816,272.707 360.316,271.04 363,269.5C 366.342,272.337 369.842,275.004 373.5,277.5 Z"/></g>
<g><path style="opacity:1" fill="#467ca0" d="M 270.5,276.5 C 273.287,276.78 275.453,278.113 277,280.5C 277.718,279.549 278.551,279.383 279.5,280C 278.382,281.074 277.382,282.24 276.5,283.5C 275.719,282.271 275.219,280.938 275,279.5C 274.64,281.608 273.973,283.608 273,285.5C 271.927,284.72 270.76,284.887 269.5,286C 270.833,287.84 270.666,288.34 269,287.5C 268.085,288.328 267.419,289.328 267,290.5C 266.505,288.527 266.338,286.527 266.5,284.5C 262.921,284.766 262.587,286.099 265.5,288.5C 265.154,289.696 264.654,289.696 264,288.5C 263.28,290.112 263.446,291.612 264.5,293C 263.833,293.333 263.167,293.667 262.5,294C 264.441,294.743 266.274,294.576 268,293.5C 268.464,294.094 268.631,294.761 268.5,295.5C 256.833,295.5 245.167,295.5 233.5,295.5C 233.082,294.778 232.416,294.278 231.5,294C 232.126,293.25 232.626,292.416 233,291.5C 233.333,291.833 233.667,292.167 234,292.5C 235.667,290.833 237.333,289.167 239,287.5C 240.183,288.731 241.349,288.731 242.5,287.5C 244.477,284.535 246.311,281.535 248,278.5C 248.5,278.667 249,278.833 249.5,279C 248.044,279.423 247.544,280.256 248,281.5C 251.097,284.682 252.763,284.015 253,279.5C 253.101,282.7 253.768,285.7 255,288.5C 255.273,286.899 255.773,285.399 256.5,284C 257.951,284.263 259.284,284.096 260.5,283.5C 257.942,281.88 257.942,280.38 260.5,279C 259.833,278.667 259.167,278.333 258.5,278C 260.709,276.309 262.542,276.476 264,278.5C 264.974,276.122 265.641,276.456 266,279.5C 266.333,278.5 266.667,277.5 267,276.5C 268.292,277.791 269.458,277.791 270.5,276.5 Z"/></g>
<g><path style="opacity:1" fill="#5b85a1" d="M 324.5,273.5 C 316.826,273.334 309.159,273.5 301.5,274C 300.584,274.278 299.918,274.778 299.5,275.5C 289.652,275.173 279.986,275.506 270.5,276.5C 269.458,277.791 268.292,277.791 267,276.5C 266.667,277.5 266.333,278.5 266,279.5C 265.641,276.456 264.974,276.122 264,278.5C 262.542,276.476 260.709,276.309 258.5,278C 259.167,278.333 259.833,278.667 260.5,279C 257.942,280.38 257.942,281.88 260.5,283.5C 259.284,284.096 257.951,284.263 256.5,284C 255.773,285.399 255.273,286.899 255,288.5C 253.768,285.7 253.101,282.7 253,279.5C 252.763,284.015 251.097,284.682 248,281.5C 247.544,280.256 248.044,279.423 249.5,279C 249,278.833 248.5,278.667 248,278.5C 246.311,281.535 244.477,284.535 242.5,287.5C 241.349,288.731 240.183,288.731 239,287.5C 237.333,289.167 235.667,290.833 234,292.5C 233.667,292.167 233.333,291.833 233,291.5C 232.626,292.416 232.126,293.25 231.5,294C 232.416,294.278 233.082,294.778 233.5,295.5C 229.298,295.817 225.298,295.483 221.5,294.5C 221.5,293.833 221.833,293.5 222.5,293.5C 230.205,287.459 237.205,280.792 243.5,273.5C 244.167,273.5 244.833,273.5 245.5,273.5C 271.893,272.422 298.227,272.422 324.5,273.5 Z"/></g>
<g><path style="opacity:1" fill="#356284" d="M 324.5,273.5 C 332.833,273.5 341.167,273.5 349.5,273.5C 351.735,273.205 353.735,273.539 355.5,274.5C 355.5,274.833 355.5,275.167 355.5,275.5C 349.233,283.773 342.566,291.773 335.5,299.5C 334.475,299.103 334.308,298.437 335,297.5C 340.186,292.281 345.02,286.781 349.5,281C 349.167,280.833 348.833,280.667 348.5,280.5C 343.015,285.485 337.681,290.652 332.5,296C 295.162,296.833 257.829,296.667 220.5,295.5C 220.624,294.893 220.957,294.56 221.5,294.5C 225.298,295.483 229.298,295.817 233.5,295.5C 245.167,295.5 256.833,295.5 268.5,295.5C 276.5,295.5 284.5,295.5 292.5,295.5C 291.265,289.155 291.432,282.821 293,276.5C 293.875,278.513 295.209,278.513 297,276.5C 298.333,277.167 299.667,277.833 301,278.5C 303.048,276.494 302.548,275.494 299.5,275.5C 299.918,274.778 300.584,274.278 301.5,274C 309.159,273.5 316.826,273.334 324.5,273.5 Z"/></g>
<g><path style="opacity:1" fill="#39b8b9" d="M 397.5,285.5 C 407.611,287.786 412.111,294.119 411,304.5C 407.559,313.071 401.392,316.071 392.5,313.5C 389.794,310.296 386.961,307.296 384,304.5C 384.612,301.806 384.445,299.14 383.5,296.5C 384.436,293.041 386.436,290.207 389.5,288C 391.955,286.369 394.455,286.203 397,287.5C 397.464,286.906 397.631,286.239 397.5,285.5 Z"/></g>
<g><path style="opacity:1" fill="#3c6f94" d="M 270.5,276.5 C 279.986,275.506 289.652,275.173 299.5,275.5C 302.548,275.494 303.048,276.494 301,278.5C 299.667,277.833 298.333,277.167 297,276.5C 295.209,278.513 293.875,278.513 293,276.5C 291.432,282.821 291.265,289.155 292.5,295.5C 284.5,295.5 276.5,295.5 268.5,295.5C 268.631,294.761 268.464,294.094 268,293.5C 266.274,294.576 264.441,294.743 262.5,294C 263.167,293.667 263.833,293.333 264.5,293C 263.446,291.612 263.28,290.112 264,288.5C 264.654,289.696 265.154,289.696 265.5,288.5C 262.587,286.099 262.921,284.766 266.5,284.5C 266.338,286.527 266.505,288.527 267,290.5C 267.419,289.328 268.085,288.328 269,287.5C 270.666,288.34 270.833,287.84 269.5,286C 270.76,284.887 271.927,284.72 273,285.5C 273.973,283.608 274.64,281.608 275,279.5C 275.219,280.938 275.719,282.271 276.5,283.5C 277.382,282.24 278.382,281.074 279.5,280C 278.551,279.383 277.718,279.549 277,280.5C 275.453,278.113 273.287,276.78 270.5,276.5 Z"/></g>
<g><path style="opacity:1" fill="#356384" d="M 191.5,101.5 C 198.175,109.174 205.508,116.174 213.5,122.5C 213.5,122.833 213.5,123.167 213.5,123.5C 212.577,127.064 212.244,130.731 212.5,134.5C 212.5,189.5 212.5,244.5 212.5,299.5C 205.133,307.868 197.133,315.535 188.5,322.5C 188.5,316.5 188.5,310.5 188.5,304.5C 189.33,295.342 189.83,286.009 190,276.5C 190.333,281.167 190.667,285.833 191,290.5C 191.333,290.833 191.667,291.167 192,291.5C 193.475,287.602 194.642,283.602 195.5,279.5C 196.074,284.281 197.074,288.948 198.5,293.5C 197.23,298.09 195.897,302.59 194.5,307C 194.454,308.728 194.954,310.228 196,311.5C 196.5,311 197,310.5 197.5,310C 196.483,308.951 196.316,307.784 197,306.5C 197.333,306.833 197.667,307.167 198,307.5C 200.475,305.23 202.475,302.563 204,299.5C 204.667,300.167 205.333,300.833 206,301.5C 207.872,300.176 208.705,298.676 208.5,297C 209.448,296.517 210.448,296.351 211.5,296.5C 211.5,286.5 211.5,276.5 211.5,266.5C 211.5,244.833 211.5,223.167 211.5,201.5C 211.5,189.167 211.5,176.833 211.5,164.5C 211.833,150.817 211.499,137.15 210.5,123.5C 207.075,120.399 203.742,117.399 200.5,114.5C 197.079,110.074 193.079,106.407 188.5,103.5C 188.351,102.448 188.517,101.448 189,100.5C 189.671,101.252 190.504,101.586 191.5,101.5 Z"/></g>
<g><path style="opacity:1" fill="#334a5d" d="M 212.5,134.5 C 212.833,134.5 213.167,134.5 213.5,134.5C 213.333,183.501 213.5,232.501 214,281.5C 214.167,238.163 214.667,194.829 215.5,151.5C 216.182,152.243 216.849,152.909 217.5,153.5C 217.5,172.167 217.5,190.833 217.5,209.5C 227.833,209.5 238.167,209.5 248.5,209.5C 253.5,209.5 258.5,209.5 263.5,209.5C 269.176,209.666 274.843,209.499 280.5,209C 282.114,206.873 284.114,205.373 286.5,204.5C 285.04,206.463 283.373,208.296 281.5,210C 260.169,210.5 238.836,210.667 217.5,210.5C 216.99,213.388 217.656,215.721 219.5,217.5C 219.5,230.167 219.5,242.833 219.5,255.5C 219.474,268.843 219.141,282.176 218.5,295.5C 218.5,295.833 218.5,296.167 218.5,296.5C 217.566,297.568 217.232,298.901 217.5,300.5C 230.167,300.5 242.833,300.5 255.5,300.5C 280.995,301.498 306.661,301.831 332.5,301.5C 305.672,302.498 278.672,302.831 251.5,302.5C 239.829,302.333 228.162,302.5 216.5,303C 213.669,304.666 211.336,306.832 209.5,309.5C 208.609,310.11 207.609,310.443 206.5,310.5C 208.962,307.536 211.629,304.703 214.5,302C 213.934,301.005 213.267,300.172 212.5,299.5C 212.5,244.5 212.5,189.5 212.5,134.5 Z"/></g>
<g><path style="opacity:1" fill="#000110" d="M 218.5,296.5 C 218.611,297.117 218.944,297.617 219.5,298C 257.5,298.333 295.5,298.667 333.5,299C 307.649,300.49 281.649,300.99 255.5,300.5C 242.833,300.5 230.167,300.5 217.5,300.5C 217.232,298.901 217.566,297.568 218.5,296.5 Z"/></g>
<g><path style="opacity:1" fill="#3a6f92" d="M 189.5,251.5 C 190.329,258.321 190.829,265.321 191,272.5C 191.875,267.032 192.208,261.699 192,256.5C 192.822,258.788 193.489,261.122 194,263.5C 194.333,259.833 194.667,256.167 195,252.5C 195.166,259.051 196.166,265.384 198,271.5C 198.307,266.118 198.974,260.785 200,255.5C 200.761,259.357 201.261,263.023 201.5,266.5C 202.451,265.674 203.451,265.508 204.5,266C 205.211,267.255 206.044,268.421 207,269.5C 207.667,267.5 208.333,265.5 209,263.5C 209.236,265.119 210.069,266.119 211.5,266.5C 211.5,276.5 211.5,286.5 211.5,296.5C 210.448,296.351 209.448,296.517 208.5,297C 208.705,298.676 207.872,300.176 206,301.5C 205.333,300.833 204.667,300.167 204,299.5C 202.475,302.563 200.475,305.23 198,307.5C 197.667,307.167 197.333,306.833 197,306.5C 196.316,307.784 196.483,308.951 197.5,310C 197,310.5 196.5,311 196,311.5C 194.954,310.228 194.454,308.728 194.5,307C 195.897,302.59 197.23,298.09 198.5,293.5C 197.074,288.948 196.074,284.281 195.5,279.5C 194.642,283.602 193.475,287.602 192,291.5C 191.667,291.167 191.333,290.833 191,290.5C 190.667,285.833 190.333,281.167 190,276.5C 189.83,286.009 189.33,295.342 188.5,304.5C 188.362,286.821 188.695,269.154 189.5,251.5 Z"/></g>
<g><path style="opacity:1" fill="#0e314a" d="M 332.5,301.5 C 339.43,307.963 345.93,314.963 352,322.5C 352.982,323.759 353.315,325.092 353,326.5C 324.991,325.792 296.824,325.458 268.5,325.5C 269.263,324.732 270.263,324.232 271.5,324C 268.456,323.641 268.122,322.974 270.5,322C 265.218,322.505 259.884,322.505 254.5,322C 255.5,321.667 256.5,321.333 257.5,321C 255.264,320.921 253.93,320.421 253.5,319.5C 254.151,318.909 254.818,318.243 255.5,317.5C 256.086,317.709 256.586,318.043 257,318.5C 258,316.833 259,315.167 260,313.5C 260.651,315.235 260.485,316.902 259.5,318.5C 261.045,319.452 262.712,319.785 264.5,319.5C 264.5,316.833 264.5,314.167 264.5,311.5C 265.833,311.5 267.167,311.5 268.5,311.5C 268.336,314.187 268.503,316.854 269,319.5C 269.256,316.443 269.756,313.443 270.5,310.5C 269.033,310.277 267.533,309.944 266,309.5C 264.415,310.376 263.415,311.709 263,313.5C 261.587,311.348 260.754,309.014 260.5,306.5C 261.978,306.762 263.311,306.429 264.5,305.5C 261.911,303.843 259.244,303.509 256.5,304.5C 254.578,304.199 252.912,303.533 251.5,302.5C 278.672,302.831 305.672,302.498 332.5,301.5 Z"/></g>
<g><path style="opacity:1" fill="#081d30" d="M 335.5,299.5 C 341.767,307.03 348.267,314.364 355,321.5C 355.24,317.748 355.74,314.081 356.5,310.5C 356.583,318.252 356.583,326.252 356.5,334.5C 356.672,335.492 356.338,336.158 355.5,336.5C 355.378,332.162 355.045,331.828 354.5,335.5C 350.759,336.401 348.759,335.068 348.5,331.5C 345.673,331.416 343.006,330.75 340.5,329.5C 322.955,327.827 305.122,326.827 287,326.5C 265.106,326.932 242.773,327.265 220,327.5C 219.536,326.906 219.369,326.239 219.5,325.5C 235.833,325.5 252.167,325.5 268.5,325.5C 296.824,325.458 324.991,325.792 353,326.5C 353.315,325.092 352.982,323.759 352,322.5C 345.93,314.963 339.43,307.963 332.5,301.5C 306.661,301.831 280.995,301.498 255.5,300.5C 281.649,300.99 307.649,300.49 333.5,299C 295.5,298.667 257.5,298.333 219.5,298C 218.944,297.617 218.611,297.117 218.5,296.5C 218.5,296.167 218.5,295.833 218.5,295.5C 219.29,294.391 219.79,293.058 220,291.5C 220.995,292.066 221.828,292.733 222.5,293.5C 221.833,293.5 221.5,293.833 221.5,294.5C 220.957,294.56 220.624,294.893 220.5,295.5C 257.829,296.667 295.162,296.833 332.5,296C 337.681,290.652 343.015,285.485 348.5,280.5C 348.833,280.667 349.167,280.833 349.5,281C 345.02,286.781 340.186,292.281 335,297.5C 334.308,298.437 334.475,299.103 335.5,299.5 Z"/></g>
<g><path style="opacity:1" fill="#163952" d="M 355.5,275.5 C 357.026,276.105 358.026,277.271 358.5,279C 356.378,285.181 356.045,291.348 357.5,297.5C 357.5,298.167 357.833,298.5 358.5,298.5C 356.49,300.317 356.157,302.317 357.5,304.5C 357.611,305.117 357.944,305.617 358.5,306C 356.893,307.049 356.227,308.549 356.5,310.5C 355.74,314.081 355.24,317.748 355,321.5C 348.267,314.364 341.767,307.03 335.5,299.5C 342.566,291.773 349.233,283.773 355.5,275.5 Z"/></g>
<g><path style="opacity:1" fill="#143757" d="M 251.5,302.5 C 252.912,303.533 254.578,304.199 256.5,304.5C 259.244,303.509 261.911,303.843 264.5,305.5C 263.311,306.429 261.978,306.762 260.5,306.5C 260.754,309.014 261.587,311.348 263,313.5C 263.415,311.709 264.415,310.376 266,309.5C 267.533,309.944 269.033,310.277 270.5,310.5C 269.756,313.443 269.256,316.443 269,319.5C 268.503,316.854 268.336,314.187 268.5,311.5C 267.167,311.5 265.833,311.5 264.5,311.5C 264.5,314.167 264.5,316.833 264.5,319.5C 262.712,319.785 261.045,319.452 259.5,318.5C 260.485,316.902 260.651,315.235 260,313.5C 259,315.167 258,316.833 257,318.5C 256.586,318.043 256.086,317.709 255.5,317.5C 254.818,318.243 254.151,318.909 253.5,319.5C 253.698,317.425 253.865,315.425 254,313.5C 253.333,314.833 252.667,314.833 252,313.5C 251.683,315.301 251.016,315.634 250,314.5C 249.333,319.833 248.667,319.833 248,314.5C 247.536,320.175 246.869,320.508 246,315.5C 245.667,316.5 245.333,317.5 245,318.5C 244.319,316.105 243.485,313.772 242.5,311.5C 241.029,312.381 240.196,313.714 240,315.5C 239.667,314.5 239.333,313.5 239,312.5C 235.785,310.634 234.118,311.967 234,316.5C 233.755,314.337 232.755,312.67 231,311.5C 230.333,312.833 229.667,312.833 229,311.5C 228.572,316.498 227.739,316.665 226.5,312C 226.167,311.833 225.833,311.667 225.5,311.5C 224.833,312.833 224.167,314.167 223.5,315.5C 222.757,314.092 221.923,312.759 221,311.5C 220.781,312.938 220.281,314.271 219.5,315.5C 218.833,313.833 218.167,312.167 217.5,310.5C 216.914,310.709 216.414,311.043 216,311.5C 215.333,310.167 214.667,308.833 214,307.5C 214.178,309.44 213.178,311.107 211,312.5C 210.768,311.263 210.268,310.263 209.5,309.5C 211.336,306.832 213.669,304.666 216.5,303C 228.162,302.5 239.829,302.333 251.5,302.5 Z"/></g>
<g><path style="opacity:1" fill="#153851" d="M 253.5,319.5 C 253.93,320.421 255.264,320.921 257.5,321C 256.5,321.333 255.5,321.667 254.5,322C 259.884,322.505 265.218,322.505 270.5,322C 268.122,322.974 268.456,323.641 271.5,324C 270.263,324.232 269.263,324.732 268.5,325.5C 252.167,325.5 235.833,325.5 219.5,325.5C 209.279,325.58 199.279,325.413 189.5,325C 195.059,319.934 200.725,315.1 206.5,310.5C 207.609,310.443 208.609,310.11 209.5,309.5C 210.268,310.263 210.768,311.263 211,312.5C 213.178,311.107 214.178,309.44 214,307.5C 214.667,308.833 215.333,310.167 216,311.5C 216.414,311.043 216.914,310.709 217.5,310.5C 218.167,312.167 218.833,313.833 219.5,315.5C 220.281,314.271 220.781,312.938 221,311.5C 221.923,312.759 222.757,314.092 223.5,315.5C 224.167,314.167 224.833,312.833 225.5,311.5C 225.833,311.667 226.167,311.833 226.5,312C 227.739,316.665 228.572,316.498 229,311.5C 229.667,312.833 230.333,312.833 231,311.5C 232.755,312.67 233.755,314.337 234,316.5C 234.118,311.967 235.785,310.634 239,312.5C 239.333,313.5 239.667,314.5 240,315.5C 240.196,313.714 241.029,312.381 242.5,311.5C 243.485,313.772 244.319,316.105 245,318.5C 245.333,317.5 245.667,316.5 246,315.5C 246.869,320.508 247.536,320.175 248,314.5C 248.667,319.833 249.333,319.833 250,314.5C 251.016,315.634 251.683,315.301 252,313.5C 252.667,314.833 253.333,314.833 254,313.5C 253.865,315.425 253.698,317.425 253.5,319.5 Z"/></g>
<g><path style="opacity:1" fill="#1a4441" d="M 357.5,304.5 C 365.507,304.334 373.507,304.5 381.5,305C 382.676,307.686 384.343,310.019 386.5,312C 398.437,320.035 407.27,317.535 413,304.5C 413.498,307.817 413.665,311.15 413.5,314.5C 410.052,327.745 401.718,332.245 388.5,328C 387.672,327.085 386.672,326.419 385.5,326C 382.22,322.24 379.22,318.406 376.5,314.5C 370.498,313.514 364.664,313.181 359,313.5C 357.869,320.512 357.036,327.512 356.5,334.5C 356.583,326.252 356.583,318.252 356.5,310.5C 356.227,308.549 356.893,307.049 358.5,306C 357.944,305.617 357.611,305.117 357.5,304.5 Z"/></g>
<g><path style="opacity:1" fill="#021428" d="M 212.5,299.5 C 213.267,300.172 213.934,301.005 214.5,302C 211.629,304.703 208.962,307.536 206.5,310.5C 200.725,315.1 195.059,319.934 189.5,325C 199.279,325.413 209.279,325.58 219.5,325.5C 219.369,326.239 219.536,326.906 220,327.5C 242.773,327.265 265.106,326.932 287,326.5C 305.122,326.827 322.955,327.827 340.5,329.5C 311.596,328.995 283.096,328.661 255,328.5C 248.247,329.314 241.414,329.814 234.5,330C 237.044,331.092 239.711,331.759 242.5,332C 243.833,332.667 244.833,333.667 245.5,335C 239.449,335.208 233.449,335.708 227.5,336.5C 222.231,336.543 217.064,336.21 212,335.5C 205.313,337.181 198.48,337.848 191.5,337.5C 190.209,337.737 189.209,337.404 188.5,336.5C 187.291,331.787 187.291,327.121 188.5,322.5C 197.133,315.535 205.133,307.868 212.5,299.5 Z"/></g>
<g><path style="opacity:1" fill="#061420" d="M 340.5,329.5 C 343.006,330.75 345.673,331.416 348.5,331.5C 348.759,335.068 350.759,336.401 354.5,335.5C 355.045,331.828 355.378,332.162 355.5,336.5C 355.082,337.222 354.416,337.722 353.5,338C 299.332,338.832 245.332,338.665 191.5,337.5C 198.48,337.848 205.313,337.181 212,335.5C 217.064,336.21 222.231,336.543 227.5,336.5C 233.449,335.708 239.449,335.208 245.5,335C 244.833,333.667 243.833,332.667 242.5,332C 239.711,331.759 237.044,331.092 234.5,330C 241.414,329.814 248.247,329.314 255,328.5C 283.096,328.661 311.596,328.995 340.5,329.5 Z"/></g>
<g><path style="opacity:1" fill="#8092a1" d="M 98.5,370.5 C 97.8333,369.833 97.1667,369.167 96.5,368.5C 81.8333,368.5 67.1667,368.5 52.5,368.5C 51.5032,386.659 51.1698,404.992 51.5,423.5C 52.3705,426.112 53.0372,428.779 53.5,431.5C 52.0689,431.119 51.2355,430.119 51,428.5C 50.5,407.836 50.3334,387.169 50.5,366.5C 66.6398,365.925 82.6398,365.925 98.5,366.5C 98.5,367.833 98.5,369.167 98.5,370.5 Z"/></g>
<g><path style="opacity:1" fill="#6e8493" d="M 232.5,370.5 C 231.504,370.414 230.671,370.748 230,371.5C 212.185,364.06 197.352,367.893 185.5,383C 184.906,383.464 184.239,383.631 183.5,383.5C 190.097,371.356 200.43,365.022 214.5,364.5C 221.196,364.732 227.196,366.732 232.5,370.5 Z"/></g>
<g><path style="opacity:1" fill="#81909b" d="M 431.5,367.5 C 414.167,367.5 396.833,367.5 379.5,367.5C 379.665,370.518 379.498,373.518 379,376.5C 377.957,372.774 377.457,373.107 377.5,377.5C 377.5,380.833 377.5,384.167 377.5,387.5C 376.347,381.681 376.181,375.681 377,369.5C 377.374,368.584 377.874,367.75 378.5,367C 396.338,366.171 414.005,366.338 431.5,367.5 Z"/></g>
<g><path style="opacity:1" fill="#6d7e8b" d="M 310.5,414.5 C 310.83,398.991 310.496,383.658 309.5,368.5C 304.788,368.619 300.288,368.619 296,368.5C 295.5,374.825 295.334,381.158 295.5,387.5C 294.346,381.013 294.179,374.346 295,367.5C 300.35,364.913 305.683,364.913 311,367.5C 311.828,383.339 311.661,399.005 310.5,414.5 Z"/></g>
<g><path style="opacity:1" fill="#6b7b85" d="M 543.5,425.5 C 543.5,425.167 543.5,424.833 543.5,424.5C 543.83,405.659 543.497,386.993 542.5,368.5C 538.003,367.945 533.836,368.611 530,370.5C 529.667,370.167 529.333,369.833 529,369.5C 528.768,370.737 528.268,371.737 527.5,372.5C 527.261,370.533 527.594,368.699 528.5,367C 533.887,366.216 539.22,366.382 544.5,367.5C 545.666,386.158 545.833,404.824 545,423.5C 544.722,424.416 544.222,425.082 543.5,425.5 Z"/></g>
<g><path style="opacity:1" fill="#345c7b" d="M 52.5,368.5 C 67.1667,368.5 81.8333,368.5 96.5,368.5C 96.5,371.167 96.5,373.833 96.5,376.5C 85.9865,376.172 75.6532,376.506 65.5,377.5C 64.5269,379.948 64.1936,382.615 64.5,385.5C 63.448,385.351 62.448,385.517 61.5,386C 62.7057,390.364 62.2057,390.531 60,386.5C 59.6667,387.5 59.3333,388.5 59,389.5C 58.5162,387.087 58.8495,384.754 60,382.5C 60.3333,382.833 60.6667,383.167 61,383.5C 61.5,382.333 62.3333,381.5 63.5,381C 62.0692,380.535 60.9025,379.701 60,378.5C 59.6667,379.5 59.3333,380.5 59,381.5C 58.3333,380.167 57.3333,379.167 56,378.5C 55.4977,382.179 54.3311,385.512 52.5,388.5C 52.5,381.833 52.5,375.167 52.5,368.5 Z"/></g>
<g><path style="opacity:1" fill="#041124" d="M 226.5,380.5 C 231.433,385.714 232.766,391.714 230.5,398.5C 224.796,387.067 216.13,384.233 204.5,390C 201.829,392.481 199.829,395.314 198.5,398.5C 197.691,400.292 197.191,402.292 197,404.5C 193.578,397.683 193.744,391.016 197.5,384.5C 202.4,377.759 209.067,375.259 217.5,377C 220.676,377.889 223.676,379.055 226.5,380.5 Z"/></g>
<g><path style="opacity:1" fill="#5c6a79" d="M 452.5,432.5 C 453.757,411.011 453.757,389.678 452.5,368.5C 448.233,368.203 444.066,368.536 440,369.5C 439.5,387.497 439.333,405.497 439.5,423.5C 438.668,407.005 438.168,390.338 438,373.5C 437.18,393.24 437.347,412.907 438.5,432.5C 437.25,432.423 436.417,431.756 436,430.5C 435.3,409.643 435.634,388.976 437,368.5C 437.5,368 438,367.5 438.5,367C 443.823,366.501 449.156,366.334 454.5,366.5C 454.667,387.503 454.5,408.503 454,429.5C 453.768,430.737 453.268,431.737 452.5,432.5 Z"/></g>
<g><path style="opacity:1" fill="#2e516f" d="M 232.5,370.5 C 238.249,373.248 242.249,377.581 244.5,383.5C 243.318,381.9 241.985,381.567 240.5,382.5C 239.614,381.675 239.281,380.675 239.5,379.5C 236.728,377.566 234.895,378.233 234,381.5C 232.494,378.526 230.828,378.193 229,380.5C 228.396,376.667 227.563,376.667 226.5,380.5C 223.676,379.055 220.676,377.889 217.5,377C 209.067,375.259 202.4,377.759 197.5,384.5C 196.504,384.586 195.671,384.252 195,383.5C 192.32,385.876 190.987,388.876 191,392.5C 190.396,389.397 189.063,386.73 187,384.5C 186.293,386.081 185.46,387.581 184.5,389C 187.276,390.779 186.943,391.779 183.5,392C 184.167,393.333 184.833,394.667 185.5,396C 184.124,398.54 184.79,400.54 187.5,402C 184.456,402.359 184.122,403.026 186.5,404C 186.167,404.333 185.833,404.667 185.5,405C 187.422,406.46 188.089,408.127 187.5,410C 190.035,410.928 191.035,412.762 190.5,415.5C 186.684,411.883 183.85,407.549 182,402.5C 181.739,406.601 182.239,410.601 183.5,414.5C 182.351,414.209 181.684,413.376 181.5,412C 179.693,403.809 179.526,395.643 181,387.5C 181.48,385.867 182.313,384.534 183.5,383.5C 184.239,383.631 184.906,383.464 185.5,383C 197.352,367.893 212.185,364.06 230,371.5C 230.671,370.748 231.504,370.414 232.5,370.5 Z"/></g>
<g><path style="opacity:1" fill="#081222" d="M 377.5,377.5 C 384.167,377.5 390.833,377.5 397.5,377.5C 397.5,392.833 397.5,408.167 397.5,423.5C 402.167,423.5 406.833,423.5 411.5,423.5C 411.492,426.545 411.159,429.545 410.5,432.5C 405.833,433.833 401.167,433.833 396.5,432.5C 396.5,425.833 396.5,419.167 396.5,412.5C 396.255,404.4 396.089,396.4 396,388.5C 389.857,388.767 383.69,388.434 377.5,387.5C 377.5,384.167 377.5,380.833 377.5,377.5 Z"/></g>
<g><path style="opacity:1" fill="#132e43" d="M 542.5,368.5 C 542.5,386.833 542.5,405.167 542.5,423.5C 537.901,423.8 533.401,423.467 529,422.5C 528.831,406.328 528.331,390.328 527.5,374.5C 527.5,373.833 527.5,373.167 527.5,372.5C 528.268,371.737 528.768,370.737 529,369.5C 529.333,369.833 529.667,370.167 530,370.5C 533.836,368.611 538.003,367.945 542.5,368.5 Z"/></g>
<g><path style="opacity:1" fill="#050b18" d="M 432.5,377.5 C 431.874,380.672 431.207,383.839 430.5,387C 424.752,387.212 419.085,387.712 413.5,388.5C 411.727,385.512 411.06,382.179 411.5,378.5C 417.797,377.68 424.131,377.347 430.5,377.5C 430.335,374.482 430.502,371.482 431,368.5C 431.181,371.695 431.681,374.695 432.5,377.5 Z"/></g>
<g><path style="opacity:1" fill="#677782" d="M 522.5,369.5 C 520.257,368.188 517.59,367.522 514.5,367.5C 511.833,367.833 509.167,368.167 506.5,368.5C 499.479,376.188 492.146,383.521 484.5,390.5C 484.351,389.448 484.517,388.448 485,387.5C 491.367,380.655 497.867,373.821 504.5,367C 510.825,366.5 517.158,366.334 523.5,366.5C 523.737,367.791 523.404,368.791 522.5,369.5 Z"/></g>
<g><path style="opacity:1" fill="#214563" d="M 288.5,414.5 C 289.775,415.048 290.442,416.381 290.5,418.5C 290.523,420.067 290.023,421.4 289,422.5C 286,422.5 283,422.5 280,422.5C 278.615,421.449 277.615,420.116 277,418.5C 276.667,419.5 276.333,420.5 276,421.5C 275,420.167 274,420.167 273,421.5C 272.147,419.397 270.98,419.397 269.5,421.5C 266.553,420.356 263.887,418.689 261.5,416.5C 259.295,412.519 257.295,408.519 255.5,404.5C 255.88,392.537 255.88,380.537 255.5,368.5C 259.257,368.071 262.757,368.737 266,370.5C 266.339,372.834 266.172,375.168 265.5,377.5C 267.786,383.378 268.119,389.378 266.5,395.5C 267,399.5 267.5,403.5 268,407.5C 268.827,408.662 269.66,409.829 270.5,411C 270.108,412.011 269.441,412.511 268.5,412.5C 274.885,413.931 281.552,414.598 288.5,414.5 Z"/></g>
<g><path style="opacity:1" fill="#081123" d="M 96.5,368.5 C 97.1667,369.167 97.8333,369.833 98.5,370.5C 99.7206,376.378 99.7206,382.211 98.5,388C 87.7876,388.212 77.1209,388.712 66.5,389.5C 65.5701,385.6 65.2367,381.6 65.5,377.5C 75.6532,376.506 85.9865,376.172 96.5,376.5C 96.5,373.833 96.5,371.167 96.5,368.5 Z"/></g>
<g><path style="opacity:1" fill="#264a68" d="M 244.5,383.5 C 245.903,386.909 246.57,390.575 246.5,394.5C 242.952,416.319 229.952,426.152 207.5,424C 205.942,423.79 204.609,423.29 203.5,422.5C 207.5,422.167 211.5,421.833 215.5,421.5C 215.606,418.921 214.939,416.588 213.5,414.5C 220.694,413.838 226.194,410.504 230,404.5C 230.495,402.527 230.662,400.527 230.5,398.5C 232.766,391.714 231.433,385.714 226.5,380.5C 227.563,376.667 228.396,376.667 229,380.5C 230.828,378.193 232.494,378.526 234,381.5C 234.895,378.233 236.728,377.566 239.5,379.5C 239.281,380.675 239.614,381.675 240.5,382.5C 241.985,381.567 243.318,381.9 244.5,383.5 Z"/></g>
<g><path style="opacity:1" fill="#2f5778" d="M 122.5,368.5 C 122.134,377.194 120.801,385.861 118.5,394.5C 121.221,396.845 120.888,398.678 117.5,400C 119.283,401.067 119.783,402.567 119,404.5C 118.195,402.099 117.362,402.266 116.5,405C 121.606,410.308 121.106,414.475 115,417.5C 111.798,413.569 110.964,409.236 112.5,404.5C 113.251,405.376 113.751,406.376 114,407.5C 114.89,404.294 114.557,401.294 113,398.5C 112.667,399.167 112.333,399.833 112,400.5C 111.349,398.765 111.515,397.098 112.5,395.5C 112.154,394.304 111.654,394.304 111,395.5C 110.333,390.167 109.667,390.167 109,395.5C 108.819,392.305 108.319,389.305 107.5,386.5C 107.5,380.167 107.5,373.833 107.5,367.5C 112.695,367.179 117.695,367.513 122.5,368.5 Z"/></g>
<g><path style="opacity:1" fill="#1b3851" d="M 431.5,367.5 C 432.479,370.625 432.813,373.958 432.5,377.5C 431.681,374.695 431.181,371.695 431,368.5C 430.502,371.482 430.335,374.482 430.5,377.5C 424.131,377.347 417.797,377.68 411.5,378.5C 411.06,382.179 411.727,385.512 413.5,388.5C 412.624,398.881 412.624,409.048 413.5,419C 412.854,422.812 412.354,426.646 412,430.5C 411.722,431.416 411.222,432.082 410.5,432.5C 411.159,429.545 411.492,426.545 411.5,423.5C 406.833,423.5 402.167,423.5 397.5,423.5C 397.5,408.167 397.5,392.833 397.5,377.5C 390.833,377.5 384.167,377.5 377.5,377.5C 377.457,373.107 377.957,372.774 379,376.5C 379.498,373.518 379.665,370.518 379.5,367.5C 396.833,367.5 414.167,367.5 431.5,367.5 Z"/></g>
<g><path style="opacity:1" fill="#455768" d="M 482.5,392.5 C 482.44,393.043 482.107,393.376 481.5,393.5C 480.502,385.193 480.169,376.86 480.5,368.5C 476.167,368.5 471.833,368.5 467.5,368.5C 467.5,386.5 467.5,404.5 467.5,422.5C 467.44,423.043 467.107,423.376 466.5,423.5C 465.667,407.177 465.167,390.844 465,374.5C 464.5,393.83 464.333,413.164 464.5,432.5C 462.614,410.558 462.614,388.558 464.5,366.5C 470.167,366.5 475.833,366.5 481.5,366.5C 481.761,375.392 482.095,384.059 482.5,392.5 Z"/></g>
<g><path style="opacity:1" fill="#183a56" d="M 353.5,393.5 C 351.984,388.828 350.151,384.161 348,379.5C 344.657,386.704 341.824,394.037 339.5,401.5C 338.839,402.718 338.172,404.051 337.5,405.5C 334.151,404.17 333.818,404.67 336.5,407C 335.109,408.65 333.609,409.15 332,408.5C 330.411,411.307 329.911,414.14 330.5,417C 327.701,417.439 326.701,418.772 327.5,421C 323.894,421.528 321.561,420.028 320.5,416.5C 327.169,401.829 333.836,387.162 340.5,372.5C 345.525,369.595 348.691,371.261 350,377.5C 352.097,376.009 354.43,375.009 357,374.5C 356.628,376.116 355.961,377.783 355,379.5C 354.002,376.972 353.169,376.972 352.5,379.5C 352.667,380.167 352.833,380.833 353,381.5C 353.893,380.289 354.726,380.289 355.5,381.5C 354.687,382.814 353.687,383.981 352.5,385C 353.444,387.719 353.777,390.552 353.5,393.5 Z"/></g>
<g><path style="opacity:1" fill="#081526" d="M 353.5,393.5 C 355.02,395.89 356.02,398.557 356.5,401.5C 354.446,401.635 352.779,400.968 351.5,399.5C 348.366,391.293 346.033,391.626 344.5,400.5C 342.958,401.301 341.292,401.634 339.5,401.5C 341.824,394.037 344.657,386.704 348,379.5C 350.151,384.161 351.984,388.828 353.5,393.5 Z M 351.5,399.5 C 350.848,400.725 349.681,401.392 348,401.5C 346.615,401.486 345.449,401.152 344.5,400.5C 346.033,391.626 348.366,391.293 351.5,399.5 Z"/></g>
<g><path style="opacity:1" fill="#7f8f98" d="M 124.5,375.5 C 123.833,373.167 123.167,370.833 122.5,368.5C 117.695,367.513 112.695,367.179 107.5,367.5C 107.5,373.833 107.5,380.167 107.5,386.5C 107.5,400.167 107.5,413.833 107.5,427.5C 106.503,407.34 106.17,387.007 106.5,366.5C 112.176,366.334 117.843,366.501 123.5,367C 124.444,369.719 124.777,372.552 124.5,375.5 Z"/></g>
<g><path style="opacity:1" fill="#295172" d="M 65.5,377.5 C 65.2367,381.6 65.5701,385.6 66.5,389.5C 65.2438,389.461 64.2438,389.961 63.5,391C 73.7044,391.434 83.7044,391.601 93.5,391.5C 93.5,394.167 93.5,396.833 93.5,399.5C 83.985,399.173 74.6517,399.506 65.5,400.5C 62.7237,400.089 62.057,400.922 63.5,403C 62.3425,407.49 59.8425,410.99 56,413.5C 55.6258,412.584 55.1258,411.75 54.5,411C 56.0278,408.482 55.6945,406.315 53.5,404.5C 52.5052,399.208 52.1718,393.875 52.5,388.5C 54.3311,385.512 55.4977,382.179 56,378.5C 57.3333,379.167 58.3333,380.167 59,381.5C 59.3333,380.5 59.6667,379.5 60,378.5C 60.9025,379.701 62.0692,380.535 63.5,381C 62.3333,381.5 61.5,382.333 61,383.5C 60.6667,383.167 60.3333,382.833 60,382.5C 58.8495,384.754 58.5162,387.087 59,389.5C 59.3333,388.5 59.6667,387.5 60,386.5C 62.2057,390.531 62.7057,390.364 61.5,386C 62.448,385.517 63.448,385.351 64.5,385.5C 64.1936,382.615 64.5269,379.948 65.5,377.5 Z"/></g>
<g><path style="opacity:1" fill="#10273c" d="M 522.5,369.5 C 521.698,373.394 520.198,377.061 518,380.5C 512.934,385.005 508.101,389.672 503.5,394.5C 502.522,394.811 501.855,395.478 501.5,396.5C 501.98,398.949 502.98,401.115 504.5,403C 504.043,403.414 503.709,403.914 503.5,404.5C 507.593,407.318 509.927,410.818 510.5,415C 509.128,415.402 507.795,415.902 506.5,416.5C 506.81,414.799 506.31,413.132 505,411.5C 504.667,412.5 504.333,413.5 504,414.5C 503.667,412.167 503.333,409.833 503,407.5C 502.51,408.793 502.343,410.127 502.5,411.5C 501.325,411.719 500.325,411.386 499.5,410.5C 498.459,408.415 496.959,406.748 495,405.5C 494.349,403.765 494.515,402.098 495.5,400.5C 492.823,398.736 493.156,397.57 496.5,397C 494.606,395.921 494.273,394.587 495.5,393C 495,392.5 494.5,392 494,391.5C 493.781,392.938 493.281,394.271 492.5,395.5C 491.808,394.975 491.308,394.308 491,393.5C 490.581,394.672 489.915,395.672 489,396.5C 488.667,394.833 488.333,393.167 488,391.5C 486.202,396.709 485.036,396.376 484.5,390.5C 492.146,383.521 499.479,376.188 506.5,368.5C 509.167,368.167 511.833,367.833 514.5,367.5C 517.59,367.522 520.257,368.188 522.5,369.5 Z"/></g>
<g><path style="opacity:1" fill="#5f7382" d="M 359.5,372.5 C 358.035,371.594 357.035,370.261 356.5,368.5C 351.533,367.338 346.533,367.171 341.5,368C 341.833,368.333 342.167,368.667 342.5,369C 341.695,370.113 341.028,371.279 340.5,372.5C 333.836,387.162 327.169,401.829 320.5,416.5C 318.929,418.635 317.596,420.968 316.5,423.5C 315.833,423.5 315.167,423.5 314.5,423.5C 322.753,404.494 331.419,385.66 340.5,367C 346.196,366.17 351.863,366.337 357.5,367.5C 358.456,369.075 359.123,370.742 359.5,372.5 Z"/></g>
<g><path style="opacity:1" fill="#112f46" d="M 452.5,368.5 C 452.5,386.833 452.5,405.167 452.5,423.5C 448.167,423.5 443.833,423.5 439.5,423.5C 439.333,405.497 439.5,387.497 440,369.5C 444.066,368.536 448.233,368.203 452.5,368.5 Z"/></g>
<g><path style="opacity:1" fill="#122e45" d="M 482.5,392.5 C 482.833,391.5 483.5,390.833 484.5,390.5C 485.036,396.376 486.202,396.709 488,391.5C 488.333,393.167 488.667,394.833 489,396.5C 489.915,395.672 490.581,394.672 491,393.5C 491.308,394.308 491.808,394.975 492.5,395.5C 493.281,394.271 493.781,392.938 494,391.5C 494.5,392 495,392.5 495.5,393C 494.273,394.587 494.606,395.921 496.5,397C 493.156,397.57 492.823,398.736 495.5,400.5C 494.515,402.098 494.349,403.765 495,405.5C 496.959,406.748 498.459,408.415 499.5,410.5C 500.325,411.386 501.325,411.719 502.5,411.5C 502.343,410.127 502.51,408.793 503,407.5C 503.333,409.833 503.667,412.167 504,414.5C 504.333,413.5 504.667,412.5 505,411.5C 506.31,413.132 506.81,414.799 506.5,416.5C 507.795,415.902 509.128,415.402 510.5,415C 509.927,410.818 507.593,407.318 503.5,404.5C 503.709,403.914 504.043,403.414 504.5,403C 502.98,401.115 501.98,398.949 501.5,396.5C 501.855,395.478 502.522,394.811 503.5,394.5C 503.755,397.016 504.589,399.35 506,401.5C 512.47,407.796 517.97,414.796 522.5,422.5C 517.25,423.615 511.917,423.781 506.5,423C 500.333,415.5 494.167,408 488,400.5C 486,403.167 483.667,405.5 481,407.5C 480.333,410.5 480.333,413.5 481,416.5C 481.383,415.944 481.883,415.611 482.5,415.5C 482.575,419.897 482.075,424.23 481,428.5C 480.878,430.437 480.045,431.77 478.5,432.5C 479.714,429.267 480.214,425.934 480,422.5C 475.834,423.803 471.667,423.803 467.5,422.5C 467.5,404.5 467.5,386.5 467.5,368.5C 471.833,368.5 476.167,368.5 480.5,368.5C 480.169,376.86 480.502,385.193 481.5,393.5C 482.107,393.376 482.44,393.043 482.5,392.5 Z"/></g>
<g><path style="opacity:1" fill="#3a5265" d="M 295.5,398.5 C 298.555,406.367 296.222,411.7 288.5,414.5C 281.552,414.598 274.885,413.931 268.5,412.5C 269.441,412.511 270.108,412.011 270.5,411C 269.66,409.829 268.827,408.662 268,407.5C 267.5,403.5 267,399.5 266.5,395.5C 268.119,389.378 267.786,383.378 265.5,377.5C 266.172,375.168 266.339,372.834 266,370.5C 262.757,368.737 259.257,368.071 255.5,368.5C 255.88,380.537 255.88,392.537 255.5,404.5C 255.54,409.193 255.873,413.859 256.5,418.5C 255.732,417.737 255.232,416.737 255,415.5C 254.5,399.17 254.333,382.837 254.5,366.5C 260.093,366.193 265.593,366.527 271,367.5C 271.333,379.5 271.667,391.5 272,403.5C 272.229,406.458 273.396,408.958 275.5,411C 288.559,416.598 295.225,412.431 295.5,398.5 Z"/></g>
<g><path style="opacity:1" fill="#040d1d" d="M 68.5,412.5 C 67.5,412.5 66.5,412.5 65.5,412.5C 65.5,408.5 65.5,404.5 65.5,400.5C 74.6517,399.506 83.985,399.173 93.5,399.5C 93.5,396.833 93.5,394.167 93.5,391.5C 95.0425,392.082 95.8758,393.749 96,396.5C 96.4992,401.155 96.6658,405.821 96.5,410.5C 86.9034,409.903 77.5701,410.569 68.5,412.5 Z"/></g>
<g><path style="opacity:1" fill="#1d3b54" d="M 359.5,372.5 C 367.357,388.733 375.023,405.066 382.5,421.5C 382.5,422.167 382.5,422.833 382.5,423.5C 377.5,423.5 372.5,423.5 367.5,423.5C 366.032,419.771 364.365,416.104 362.5,412.5C 352.851,411.335 343.184,411.168 333.5,412C 331.865,415.739 330.531,419.573 329.5,423.5C 325.167,423.5 320.833,423.5 316.5,423.5C 317.596,420.968 318.929,418.635 320.5,416.5C 321.561,420.028 323.894,421.528 327.5,421C 326.701,418.772 327.701,417.439 330.5,417C 329.911,414.14 330.411,411.307 332,408.5C 333.609,409.15 335.109,408.65 336.5,407C 333.818,404.67 334.151,404.17 337.5,405.5C 338.172,404.051 338.839,402.718 339.5,401.5C 341.292,401.634 342.958,401.301 344.5,400.5C 345.449,401.152 346.615,401.486 348,401.5C 349.681,401.392 350.848,400.725 351.5,399.5C 352.779,400.968 354.446,401.635 356.5,401.5C 356.02,398.557 355.02,395.89 353.5,393.5C 353.777,390.552 353.444,387.719 352.5,385C 353.687,383.981 354.687,382.814 355.5,381.5C 354.726,380.289 353.893,380.289 353,381.5C 352.833,380.833 352.667,380.167 352.5,379.5C 353.169,376.972 354.002,376.972 355,379.5C 355.961,377.783 356.628,376.116 357,374.5C 354.43,375.009 352.097,376.009 350,377.5C 348.691,371.261 345.525,369.595 340.5,372.5C 341.028,371.279 341.695,370.113 342.5,369C 342.167,368.667 341.833,368.333 341.5,368C 346.533,367.171 351.533,367.338 356.5,368.5C 357.035,370.261 358.035,371.594 359.5,372.5 Z"/></g>
<g><path style="opacity:1" fill="#343d47" d="M 527.5,374.5 C 527.5,393.833 527.5,413.167 527.5,432.5C 531.846,432.666 536.179,432.499 540.5,432C 539.167,431.667 537.833,431.333 536.5,431C 538.473,430.505 540.473,430.338 542.5,430.5C 542.66,428.801 542.494,427.134 542,425.5C 540.913,427.932 540.413,427.598 540.5,424.5C 541.5,424.5 542.5,424.5 543.5,424.5C 543.5,424.833 543.5,425.167 543.5,425.5C 543.945,428.365 543.278,430.865 541.5,433C 536.511,433.499 531.511,433.666 526.5,433.5C 526.17,413.66 526.503,393.993 527.5,374.5 Z"/></g>
<g><path style="opacity:1" fill="#0c1520" d="M 522.5,422.5 C 523.883,425.862 523.55,429.195 521.5,432.5C 515.552,433.624 509.552,433.79 503.5,433C 502.069,432.535 500.903,431.701 500,430.5C 495.586,423.966 490.919,417.632 486,411.5C 484.595,412.731 483.429,414.064 482.5,415.5C 481.883,415.611 481.383,415.944 481,416.5C 480.333,413.5 480.333,410.5 481,407.5C 483.667,405.5 486,403.167 488,400.5C 494.167,408 500.333,415.5 506.5,423C 511.917,423.781 517.25,423.615 522.5,422.5 Z"/></g>
<g><path style="opacity:1" fill="#495b6e" d="M 98.5,370.5 C 99.8164,373.087 100.483,376.087 100.5,379.5C 100.883,383.845 100.049,387.845 98,391.5C 97.5004,398.158 97.3337,404.825 97.5,411.5C 97.5,412.5 97.5,413.5 97.5,414.5C 86.8281,414.667 76.1615,414.5 65.5,414C 66.7375,413.768 67.7375,413.268 68.5,412.5C 77.5701,410.569 86.9034,409.903 96.5,410.5C 96.6658,405.821 96.4992,401.155 96,396.5C 95.8758,393.749 95.0425,392.082 93.5,391.5C 83.7044,391.601 73.7044,391.434 63.5,391C 64.2438,389.961 65.2438,389.461 66.5,389.5C 77.1209,388.712 87.7876,388.212 98.5,388C 99.7206,382.211 99.7206,376.378 98.5,370.5 Z"/></g>
<g><path style="opacity:1" fill="#607485" d="M 124.5,375.5 C 125.495,387.655 125.829,399.989 125.5,412.5C 134.839,412.334 144.173,412.5 153.5,413C 154.406,414.699 154.739,416.533 154.5,418.5C 153.596,417.791 153.263,416.791 153.5,415.5C 153.217,414.711 152.717,414.044 152,413.5C 140.866,414.796 131.699,414.796 124.5,413.5C 124.5,400.833 124.5,388.167 124.5,375.5 Z"/></g>
<g><path style="opacity:1" fill="#06101e" d="M 382.5,423.5 C 382.5,426.833 382.5,430.167 382.5,433.5C 377.156,433.666 371.823,433.499 366.5,433C 364.5,429.333 362.5,425.667 360.5,422C 352.2,420.358 343.866,420.358 335.5,422C 333.765,424.192 332.598,426.692 332,429.5C 330.833,430.667 329.667,431.833 328.5,433C 323.511,433.499 318.511,433.666 313.5,433.5C 313.187,429.958 313.521,426.625 314.5,423.5C 315.167,423.5 315.833,423.5 316.5,423.5C 320.833,423.5 325.167,423.5 329.5,423.5C 330.531,419.573 331.865,415.739 333.5,412C 343.184,411.168 352.851,411.335 362.5,412.5C 364.365,416.104 366.032,419.771 367.5,423.5C 372.5,423.5 377.5,423.5 382.5,423.5 Z"/></g>
<g><path style="opacity:1" fill="#22435f" d="M 122.5,368.5 C 123.167,370.833 123.833,373.167 124.5,375.5C 124.5,388.167 124.5,400.833 124.5,413.5C 131.699,414.796 140.866,414.796 152,413.5C 152.717,414.044 153.217,414.711 153.5,415.5C 152.527,417.948 152.194,420.615 152.5,423.5C 137.833,423.5 123.167,423.5 108.5,423.5C 108.368,426.57 108.701,429.57 109.5,432.5C 107.787,431.365 107.12,429.698 107.5,427.5C 107.5,413.833 107.5,400.167 107.5,386.5C 108.319,389.305 108.819,392.305 109,395.5C 109.667,390.167 110.333,390.167 111,395.5C 111.654,394.304 112.154,394.304 112.5,395.5C 111.515,397.098 111.349,398.765 112,400.5C 112.333,399.833 112.667,399.167 113,398.5C 114.557,401.294 114.89,404.294 114,407.5C 113.751,406.376 113.251,405.376 112.5,404.5C 110.964,409.236 111.798,413.569 115,417.5C 121.106,414.475 121.606,410.308 116.5,405C 117.362,402.266 118.195,402.099 119,404.5C 119.783,402.567 119.283,401.067 117.5,400C 120.888,398.678 121.221,396.845 118.5,394.5C 120.801,385.861 122.134,377.194 122.5,368.5 Z"/></g>
<g><path style="opacity:1" fill="#1d3f5c" d="M 309.5,368.5 C 309.667,381.504 309.5,394.504 309,407.5C 306.605,415.951 301.105,421.118 292.5,423C 284.667,424.018 277,423.518 269.5,421.5C 270.98,419.397 272.147,419.397 273,421.5C 274,420.167 275,420.167 276,421.5C 276.333,420.5 276.667,419.5 277,418.5C 277.615,420.116 278.615,421.449 280,422.5C 283,422.5 286,422.5 289,422.5C 290.023,421.4 290.523,420.067 290.5,418.5C 290.442,416.381 289.775,415.048 288.5,414.5C 296.222,411.7 298.555,406.367 295.5,398.5C 295.5,394.833 295.5,391.167 295.5,387.5C 295.334,381.158 295.5,374.825 296,368.5C 300.288,368.619 304.788,368.619 309.5,368.5 Z"/></g>
<g><path style="opacity:1" fill="#234664" d="M 52.5,368.5 C 52.5,375.167 52.5,381.833 52.5,388.5C 52.1718,393.875 52.5052,399.208 53.5,404.5C 55.6945,406.315 56.0278,408.482 54.5,411C 55.1258,411.75 55.6258,412.584 56,413.5C 59.8425,410.99 62.3425,407.49 63.5,403C 62.057,400.922 62.7237,400.089 65.5,400.5C 65.5,404.5 65.5,408.5 65.5,412.5C 66.5,412.5 67.5,412.5 68.5,412.5C 67.7375,413.268 66.7375,413.768 65.5,414C 76.1615,414.5 86.8281,414.667 97.5,414.5C 97.5,413.5 97.5,412.5 97.5,411.5C 99.1613,413.489 100.328,415.822 101,418.5C 101.499,423.489 101.666,428.489 101.5,433.5C 85.3246,433.83 69.3246,433.496 53.5,432.5C 69.1667,432.5 84.8333,432.5 100.5,432.5C 100.691,427.101 100.191,421.767 99,416.5C 98.7638,418.764 98.2638,420.931 97.5,423C 82.1703,423.5 66.837,423.667 51.5,423.5C 51.1698,404.992 51.5032,386.659 52.5,368.5 Z"/></g>
<g><path style="opacity:1" fill="#264c6c" d="M 197.5,384.5 C 193.744,391.016 193.578,397.683 197,404.5C 197.191,402.292 197.691,400.292 198.5,398.5C 197.743,404.094 199.743,408.261 204.5,411C 207.571,412.296 210.571,413.462 213.5,414.5C 214.939,416.588 215.606,418.921 215.5,421.5C 211.5,421.833 207.5,422.167 203.5,422.5C 201.436,422.313 199.436,421.813 197.5,421C 194.734,419.629 192.401,417.796 190.5,415.5C 191.035,412.762 190.035,410.928 187.5,410C 188.089,408.127 187.422,406.46 185.5,405C 185.833,404.667 186.167,404.333 186.5,404C 184.122,403.026 184.456,402.359 187.5,402C 184.79,400.54 184.124,398.54 185.5,396C 184.833,394.667 184.167,393.333 183.5,392C 186.943,391.779 187.276,390.779 184.5,389C 185.46,387.581 186.293,386.081 187,384.5C 189.063,386.73 190.396,389.397 191,392.5C 190.987,388.876 192.32,385.876 195,383.5C 195.671,384.252 196.504,384.586 197.5,384.5 Z"/></g>
<g><path style="opacity:1" fill="#7b8187" d="M 396.5,412.5 C 396.5,419.167 396.5,425.833 396.5,432.5C 395.883,432.389 395.383,432.056 395,431.5C 394.333,425.5 394.333,419.5 395,413.5C 395.383,412.944 395.883,412.611 396.5,412.5 Z"/></g>
<g><path style="opacity:1" fill="#021129" d="M 53.5,432.5 C 53.5,432.167 53.5,431.833 53.5,431.5C 53.0372,428.779 52.3705,426.112 51.5,423.5C 66.837,423.667 82.1703,423.5 97.5,423C 98.2638,420.931 98.7638,418.764 99,416.5C 100.191,421.767 100.691,427.101 100.5,432.5C 84.8333,432.5 69.1667,432.5 53.5,432.5 Z"/></g>
<g><path style="opacity:1" fill="#051228" d="M 153.5,415.5 C 153.263,416.791 153.596,417.791 154.5,418.5C 154.5,419.5 154.5,420.5 154.5,421.5C 154.5,424.833 154.5,428.167 154.5,431.5C 147.364,432.831 139.864,433.497 132,433.5C 124.326,433.5 116.826,433.166 109.5,432.5C 108.701,429.57 108.368,426.57 108.5,423.5C 123.167,423.5 137.833,423.5 152.5,423.5C 152.194,420.615 152.527,417.948 153.5,415.5 Z"/></g>
<g><path style="opacity:1" fill="#091325" d="M 246.5,394.5 C 247.117,394.611 247.617,394.944 248,395.5C 249.999,420.165 238.666,432.831 214,433.5C 202.853,434.342 193.519,430.675 186,422.5C 184.293,420.091 183.46,417.425 183.5,414.5C 182.239,410.601 181.739,406.601 182,402.5C 183.85,407.549 186.684,411.883 190.5,415.5C 192.401,417.796 194.734,419.629 197.5,421C 199.436,421.813 201.436,422.313 203.5,422.5C 204.609,423.29 205.942,423.79 207.5,424C 229.952,426.152 242.952,416.319 246.5,394.5 Z"/></g>
<g><path style="opacity:1" fill="#828792" d="M 154.5,421.5 C 155.117,421.611 155.617,421.944 156,422.5C 156.167,424 156.333,425.5 156.5,427C 156.431,428.986 155.765,430.486 154.5,431.5C 154.5,428.167 154.5,424.833 154.5,421.5 Z"/></g>
<g><path style="opacity:1" fill="#081424" d="M 309.5,368.5 C 310.496,383.658 310.83,398.991 310.5,414.5C 309.567,424.935 303.901,431.102 293.5,433C 285.421,433.901 277.421,433.568 269.5,432C 262.341,430.112 258.008,425.612 256.5,418.5C 255.873,413.859 255.54,409.193 255.5,404.5C 257.295,408.519 259.295,412.519 261.5,416.5C 263.887,418.689 266.553,420.356 269.5,421.5C 277,423.518 284.667,424.018 292.5,423C 301.105,421.118 306.605,415.951 309,407.5C 309.5,394.504 309.667,381.504 309.5,368.5 Z"/></g>
<g><path style="opacity:1" fill="#8a8f96" d="M 382.5,421.5 C 384.854,425.456 384.854,429.456 382.5,433.5C 382.5,430.167 382.5,426.833 382.5,423.5C 382.5,422.833 382.5,422.167 382.5,421.5 Z"/></g>
<g><path style="opacity:1" fill="#040f20" d="M 452.5,368.5 C 453.757,389.678 453.757,411.011 452.5,432.5C 447.833,433.833 443.167,433.833 438.5,432.5C 437.347,412.907 437.18,393.24 438,373.5C 438.168,390.338 438.668,407.005 439.5,423.5C 443.833,423.5 448.167,423.5 452.5,423.5C 452.5,405.167 452.5,386.833 452.5,368.5 Z"/></g>
<g><path style="opacity:1" fill="#0a1320" d="M 467.5,422.5 C 471.667,423.803 475.834,423.803 480,422.5C 480.214,425.934 479.714,429.267 478.5,432.5C 473.833,433.833 469.167,433.833 464.5,432.5C 464.333,413.164 464.5,393.83 465,374.5C 465.167,390.844 465.667,407.177 466.5,423.5C 467.107,423.376 467.44,423.043 467.5,422.5 Z"/></g>
<g><path style="opacity:1" fill="#020c1a" d="M 542.5,368.5 C 543.497,386.993 543.83,405.659 543.5,424.5C 542.5,424.5 541.5,424.5 540.5,424.5C 540.413,427.598 540.913,427.932 542,425.5C 542.494,427.134 542.66,428.801 542.5,430.5C 540.473,430.338 538.473,430.505 536.5,431C 537.833,431.333 539.167,431.667 540.5,432C 536.179,432.499 531.846,432.666 527.5,432.5C 527.5,413.167 527.5,393.833 527.5,374.5C 528.331,390.328 528.831,406.328 529,422.5C 533.401,423.467 537.901,423.8 542.5,423.5C 542.5,405.167 542.5,386.833 542.5,368.5 Z"/></g>
<g><path style="opacity:1" fill="#8d959b" d="M 420.5,447.5 C 424.812,446.122 429.146,446.455 433.5,448.5C 434.966,452.053 434.632,455.386 432.5,458.5C 434.278,459.726 435.278,461.393 435.5,463.5C 434.206,462.71 433.039,461.71 432,460.5C 432.278,456.861 432.278,453.194 432,449.5C 428.38,447.817 424.546,447.15 420.5,447.5 Z"/></g>
<g><path style="opacity:1" fill="#6f7782" d="M 385.5,479.5 C 385.5,476.5 385.5,473.5 385.5,470.5C 380.456,470.827 375.456,470.494 370.5,469.5C 374.783,468.508 379.116,468.174 383.5,468.5C 384.331,461.869 384.664,455.202 384.5,448.5C 377.5,448.5 370.5,448.5 363.5,448.5C 362.566,459.795 362.232,471.129 362.5,482.5C 361.341,471.341 361.174,460.008 362,448.5C 369.408,446.418 376.908,446.084 384.5,447.5C 385.331,454.811 385.831,462.144 386,469.5C 387.921,472.96 387.755,476.293 385.5,479.5 Z"/></g>
<g><path style="opacity:1" fill="#586774" d="M 283.5,448.5 C 276.513,449.793 269.513,449.793 262.5,448.5C 262.206,459.501 261.872,470.501 261.5,481.5C 260.314,478.062 259.647,474.396 259.5,470.5C 260.137,463.177 260.637,455.843 261,448.5C 263.212,445.998 264.045,442.998 263.5,439.5C 270.221,437.946 275.221,440.112 278.5,446C 280.491,446.374 282.158,447.207 283.5,448.5 Z"/></g>
<g><path style="opacity:1" fill="#07162b" d="M 264.5,440.5 C 269.401,441.617 273.734,443.784 277.5,447C 273.789,447.825 270.122,447.659 266.5,446.5C 265.628,444.55 264.961,442.55 264.5,440.5 Z"/></g>
<g><path style="opacity:1" fill="#020d22" d="M 283.5,449.5 C 283.747,452.939 283.414,456.272 282.5,459.5C 277.807,457.64 272.807,456.974 267.5,457.5C 267.5,455.5 267.5,453.5 267.5,451.5C 273.135,452.037 278.468,451.37 283.5,449.5 Z"/></g>
<g><path style="opacity:1" fill="#273e58" d="M 183.5,453.5 C 178.26,452.551 172.927,452.218 167.5,452.5C 167.187,455.247 167.52,457.914 168.5,460.5C 173.1,459.557 177.767,459.223 182.5,459.5C 182.5,461.5 182.5,463.5 182.5,465.5C 178.137,463.489 173.471,462.989 168.5,464C 167.549,467.057 167.216,470.223 167.5,473.5C 165.5,473.5 163.5,473.5 161.5,473.5C 161.5,465.167 161.5,456.833 161.5,448.5C 168.508,448.334 175.508,448.5 182.5,449C 183.38,450.356 183.714,451.856 183.5,453.5 Z"/></g>
<g><path style="opacity:1" fill="#1e374e" d="M 283.5,448.5 C 283.5,448.833 283.5,449.167 283.5,449.5C 278.468,451.37 273.135,452.037 267.5,451.5C 267.5,453.5 267.5,455.5 267.5,457.5C 272.807,456.974 277.807,457.64 282.5,459.5C 282.81,462.713 282.477,465.713 281.5,468.5C 281.5,466.167 281.5,463.833 281.5,461.5C 276.833,461.5 272.167,461.5 267.5,461.5C 267.198,464.059 267.532,466.393 268.5,468.5C 272.715,470.436 277.381,471.103 282.5,470.5C 282.5,471.5 282.5,472.5 282.5,473.5C 275.833,473.5 269.167,473.5 262.5,473.5C 262.264,476.609 262.597,479.609 263.5,482.5C 262.508,482.672 261.842,482.338 261.5,481.5C 261.872,470.501 262.206,459.501 262.5,448.5C 269.513,449.793 276.513,449.793 283.5,448.5 Z"/></g>
<g><path style="opacity:1" fill="#213a51" d="M 332.5,449.5 C 333.075,451.411 334.075,453.078 335.5,454.5C 334.876,456.834 334.043,459.167 333,461.5C 332.667,461.167 332.333,460.833 332,460.5C 327.635,462.485 323.135,462.818 318.5,461.5C 321.447,460.679 324.447,460.179 327.5,460C 329.013,457.084 328.68,454.418 326.5,452C 323.518,451.502 320.518,451.335 317.5,451.5C 316.637,458.735 316.637,466.068 317.5,473.5C 315.5,473.5 313.5,473.5 311.5,473.5C 311.5,465.167 311.5,456.833 311.5,448.5C 318.543,448.28 325.543,448.614 332.5,449.5 Z"/></g>
<g><path style="opacity:1" fill="#64727f" d="M 231.5,449.5 C 224.5,449.5 217.5,449.5 210.5,449.5C 210.5,460.5 210.5,471.5 210.5,482.5C 208.522,471.215 207.855,459.548 208.5,447.5C 214.138,446.541 219.805,446.374 225.5,447C 227.852,447.24 229.852,448.073 231.5,449.5 Z"/></g>
<g><path style="opacity:1" fill="#101f30" d="M 385.5,479.5 C 385.5,480.5 385.5,481.5 385.5,482.5C 377.548,483.057 369.881,483.057 362.5,482.5C 362.232,471.129 362.566,459.795 363.5,448.5C 370.5,448.5 377.5,448.5 384.5,448.5C 384.664,455.202 384.331,461.869 383.5,468.5C 379.116,468.174 374.783,468.508 370.5,469.5C 375.456,470.494 380.456,470.827 385.5,470.5C 385.5,473.5 385.5,476.5 385.5,479.5 Z"/></g>
<g><path style="opacity:1" fill="#0d1c2e" d="M 335.5,454.5 C 335.91,459.673 335.243,464.673 333.5,469.5C 335.279,473.585 335.946,477.918 335.5,482.5C 332.893,483.802 330.227,483.636 327.5,482C 325.669,478.802 323.502,475.968 321,473.5C 320.5,473.667 320,473.833 319.5,474C 321.19,478.068 320.19,481.235 316.5,483.5C 315.081,482.549 313.415,482.216 311.5,482.5C 311.5,479.5 311.5,476.5 311.5,473.5C 313.5,473.5 315.5,473.5 317.5,473.5C 316.637,466.068 316.637,458.735 317.5,451.5C 320.518,451.335 323.518,451.502 326.5,452C 328.68,454.418 329.013,457.084 327.5,460C 324.447,460.179 321.447,460.679 318.5,461.5C 323.135,462.818 327.635,462.485 332,460.5C 332.333,460.833 332.667,461.167 333,461.5C 334.043,459.167 334.876,456.834 335.5,454.5 Z"/></g>
<g><path style="opacity:1" fill="#1c3248" d="M 231.5,449.5 C 231.833,449.5 232.167,449.5 232.5,449.5C 235.119,456.501 235.119,463.501 232.5,470.5C 233.193,471.518 233.859,472.518 234.5,473.5C 231.851,474.248 229.184,473.915 226.5,472.5C 225.602,466.758 222.268,464.425 216.5,465.5C 216.338,467.527 216.505,469.527 217,471.5C 217.417,472.756 218.25,473.423 219.5,473.5C 218.555,476.14 218.388,478.806 219,481.5C 216.302,483.673 213.469,484.006 210.5,482.5C 210.5,471.5 210.5,460.5 210.5,449.5C 217.5,449.5 224.5,449.5 231.5,449.5 Z"/></g>
<g><path style="opacity:1" fill="#00081c" d="M 216.5,452.5 C 219.518,452.335 222.518,452.502 225.5,453C 227.602,454.733 227.935,456.733 226.5,459C 223.183,459.498 219.85,459.665 216.5,459.5C 216.5,457.167 216.5,454.833 216.5,452.5 Z"/></g>
<g><path style="opacity:1" fill="#010717" d="M 281.5,468.5 C 277.167,468.5 272.833,468.5 268.5,468.5C 267.532,466.393 267.198,464.059 267.5,461.5C 272.167,461.5 276.833,461.5 281.5,461.5C 281.5,463.833 281.5,466.167 281.5,468.5 Z"/></g>
<g><path style="opacity:1" fill="#5d6a75" d="M 332.5,449.5 C 325.543,448.614 318.543,448.28 311.5,448.5C 311.5,456.833 311.5,465.167 311.5,473.5C 311.5,476.5 311.5,479.5 311.5,482.5C 313.415,482.216 315.081,482.549 316.5,483.5C 314.208,483.756 312.041,483.423 310,482.5C 309.657,471.105 309.657,459.772 310,448.5C 313.324,447.094 316.824,446.428 320.5,446.5C 324.931,446.274 328.931,447.274 332.5,449.5 Z"/></g>
<g><path style="opacity:1" fill="#818993" d="M 182.5,471.5 C 182.5,469.5 182.5,467.5 182.5,465.5C 182.5,463.5 182.5,461.5 182.5,459.5C 183.461,457.735 183.795,455.735 183.5,453.5C 183.714,451.856 183.38,450.356 182.5,449C 175.508,448.5 168.508,448.334 161.5,448.5C 161.5,456.833 161.5,465.167 161.5,473.5C 162.159,476.455 162.492,479.455 162.5,482.5C 161.778,482.082 161.278,481.416 161,480.5C 160.5,469.505 160.333,458.505 160.5,447.5C 168.484,446.298 176.484,446.298 184.5,447.5C 184.34,450.884 184.673,454.217 185.5,457.5C 185.275,462.592 184.275,467.259 182.5,471.5 Z"/></g>
<g><path style="opacity:1" fill="#020e21" d="M 183.5,453.5 C 183.795,455.735 183.461,457.735 182.5,459.5C 177.767,459.223 173.1,459.557 168.5,460.5C 167.52,457.914 167.187,455.247 167.5,452.5C 172.927,452.218 178.26,452.551 183.5,453.5 Z"/></g>
<g><path style="opacity:1" fill="#5e6973" d="M 283.5,448.5 C 284.117,448.611 284.617,448.944 285,449.5C 285.167,451 285.333,452.5 285.5,454C 284.833,457.333 284.167,460.667 283.5,464C 284.852,467.631 285.518,471.465 285.5,475.5C 285.495,477.696 285.162,479.696 284.5,481.5C 284.851,476.939 284.185,473.272 282.5,470.5C 277.381,471.103 272.715,470.436 268.5,468.5C 272.833,468.5 277.167,468.5 281.5,468.5C 282.477,465.713 282.81,462.713 282.5,459.5C 283.414,456.272 283.747,452.939 283.5,449.5C 283.5,449.167 283.5,448.833 283.5,448.5 Z"/></g>
<g><path style="opacity:1" fill="#172434" d="M 420.5,447.5 C 424.546,447.15 428.38,447.817 432,449.5C 432.278,453.194 432.278,456.861 432,460.5C 433.039,461.71 434.206,462.71 435.5,463.5C 437.99,478.834 431.323,485.001 415.5,482C 412.135,481.468 409.802,479.634 408.5,476.5C 411.214,471.212 411.881,465.712 410.5,460C 409.482,452.156 412.815,447.989 420.5,447.5 Z"/></g>
<g><path style="opacity:1" fill="#656d79" d="M 232.5,449.5 C 234.136,450.749 235.303,452.416 236,454.5C 235.907,462.691 236.073,470.857 236.5,479C 236.57,482.992 234.57,484.492 230.5,483.5C 231.568,482.566 232.901,482.232 234.5,482.5C 234.5,479.5 234.5,476.5 234.5,473.5C 233.859,472.518 233.193,471.518 232.5,470.5C 235.119,463.501 235.119,456.501 232.5,449.5 Z"/></g>
<g><path style="opacity:1" fill="#071428" d="M 284.5,481.5 C 284.389,482.117 284.056,482.617 283.5,483C 276.816,483.546 270.149,483.38 263.5,482.5C 262.597,479.609 262.264,476.609 262.5,473.5C 269.167,473.5 275.833,473.5 282.5,473.5C 282.5,472.5 282.5,471.5 282.5,470.5C 284.185,473.272 284.851,476.939 284.5,481.5 Z"/></g>
<g><path style="opacity:1" fill="#111c2f" d="M 182.5,465.5 C 182.5,467.5 182.5,469.5 182.5,471.5C 179.038,472.482 175.371,472.815 171.5,472.5C 171.82,475.898 171.487,479.232 170.5,482.5C 167.697,483.776 165.03,483.776 162.5,482.5C 162.492,479.455 162.159,476.455 161.5,473.5C 163.5,473.5 165.5,473.5 167.5,473.5C 167.216,470.223 167.549,467.057 168.5,464C 173.471,462.989 178.137,463.489 182.5,465.5 Z"/></g>
<g><path style="opacity:1" fill="#061328" d="M 234.5,473.5 C 234.5,476.5 234.5,479.5 234.5,482.5C 232.901,482.232 231.568,482.566 230.5,483.5C 229.234,482.91 227.901,482.41 226.5,482C 224.267,479.004 221.934,476.171 219.5,473.5C 218.25,473.423 217.417,472.756 217,471.5C 216.505,469.527 216.338,467.527 216.5,465.5C 222.268,464.425 225.602,466.758 226.5,472.5C 229.184,473.915 231.851,474.248 234.5,473.5 Z"/></g>
<g><path style="opacity:1" fill="#71757e" d="M 332.5,449.5 C 336.018,451.982 337.685,455.482 337.5,460C 336.232,465.996 336.232,471.996 337.5,478C 337.431,479.986 336.765,481.486 335.5,482.5C 335.946,477.918 335.279,473.585 333.5,469.5C 335.243,464.673 335.91,459.673 335.5,454.5C 334.075,453.078 333.075,451.411 332.5,449.5 Z"/></g>
</svg>
