<?xml version="1.0" encoding="UTF-8" standalone="no"?>
<!-- Created with Inkscape (http://www.inkscape.org/) -->
<svg
   xmlns:dc="http://purl.org/dc/elements/1.1/"
   xmlns:cc="http://web.resource.org/cc/"
   xmlns:rdf="http://www.w3.org/1999/02/22-rdf-syntax-ns#"
   xmlns:svg="http://www.w3.org/2000/svg"
   xmlns="http://www.w3.org/2000/svg"
   xmlns:sodipodi="http://sodipodi.sourceforge.net/DTD/sodipodi-0.dtd"
   xmlns:inkscape="http://www.inkscape.org/namespaces/inkscape"
   id="svg2"
   sodipodi:version="0.32"
   inkscape:version="0.45.1"
   width="499.99994"
   height="154.11055"
   version="1.0"
   sodipodi:docbase="/home/butze/Desktop"
   sodipodi:docname="veolia-transport-logo.svg"
   inkscape:output_extension="org.inkscape.output.svg.inkscape">
  <metadata
     id="metadata7">
    <rdf:RDF>
      <cc:Work
         rdf:about="">
        <dc:format>image/svg+xml</dc:format>
        <dc:type
           rdf:resource="http://purl.org/dc/dcmitype/StillImage" />
      </cc:Work>
    </rdf:RDF>
  </metadata>
  <defs
     id="defs5" />
  <sodipodi:namedview
     inkscape:window-height="752"
     inkscape:window-width="1280"
     inkscape:pageshadow="2"
     inkscape:pageopacity="0.0"
     guidetolerance="10.0"
     gridtolerance="10.0"
     objecttolerance="10.0"
     borderopacity="1.0"
     bordercolor="#666666"
     pagecolor="#ffffff"
     id="base"
     inkscape:zoom="0.64787582"
     inkscape:cx="612"
     inkscape:cy="336.59587"
     inkscape:window-x="0"
     inkscape:window-y="25"
     inkscape:current-layer="svg2" />
  <g
     id="g4105"
     transform="matrix(0.4212512,0,0,0.4212512,-9.2927491,-5.3658433)">
    <path
       sodipodi:nodetypes="csssssssssccsssssssssssssssccccssssssssccssssssssccsssssscccsccccssscccccscccccccccscccccccscccsssscccccccccccccccsccsscccssscccccsccssssc"
       id="path2161"
       d="M 142.44208,302.12827 C 89.121664,292.40085 45.786697,254.69444 29.09127,203.5 C 26.938891,196.9 24.462837,186.9463 23.588927,181.38067 C 21.803694,170.01114 21.532987,149.06366 23.034775,138.5 C 30.880663,83.311525 69.233288,37.246688 121.61344,20.098452 C 137.84971,14.783014 150.47773,12.757405 167.5,12.737973 C 206.91306,12.692982 242.55347,27.468958 270.54225,55.457745 C 286.937,71.852488 297.85042,89.161649 305.31654,110.61126 C 326.96812,172.81465 303.79239,242.49535 249.28475,279.07771 C 233.25025,289.83914 217.41914,296.66722 198.12957,301.14135 C 185.33655,304.10863 156.13423,304.62617 142.44208,302.12827 z M 160.66648,234.65268 C 144.8285,215.983 134.9718,195.11021 135.02445,180.3525 C 135.10295,158.3482 147.05011,143.55692 165.78871,142.26456 C 183.42767,141.04803 197.08833,153.8177 199.86455,174.11785 C 201.97876,189.57733 195.28021,207.16899 179.15296,228.51034 C 175.49383,233.3525 171.83335,238.21775 171.01856,239.322 C 169.55753,241.30207 169.65395,241.3212 178.01856,240.71017 C 199.15301,239.16633 221.09529,229.44774 238.2065,214.05198 C 250.99598,202.54468 263.30478,181.99874 268.19199,164 C 270.19968,156.60602 270.49568,153.22291 270.46677,138 C 270.43238,119.89262 269.70715,115.18841 264.95492,102.24725 C 253.53098,71.137872 226.65807,46.996363 193.17543,37.763537 C 181.94414,34.666511 154.01397,34.678851 142.73744,37.785821 C 105.65216,48.003754 78.033628,75.644472 67.758934,112.82457 C 64.582207,124.3199 64.588423,150.80707 67.770827,163.5 C 70.867291,175.85017 79.320371,192.55916 87.771787,203.03539 C 105.42777,224.92146 135.47851,240.62754 160.27554,240.92964 L 166.05109,241 L 160.66648,234.65268 z M 748.60817,244.93391 C 712.50037,239.92517 694.4627,226.10116 685.36267,196.46277 C 682.75864,187.98156 682.6113,186.4523 682.6203,168 C 682.62859,151.01511 682.9137,147.46816 684.83081,140.5 C 691.16938,117.46103 704.84287,102.11283 724.80772,95.626782 C 738.2532,91.258702 743.58108,90.539559 762,90.606671 C 781.01497,90.675954 788.84438,91.893983 800.84504,96.649834 C 827.55438,107.23472 841,131.46069 841,169 C 841,211.52784 823.48901,235.72093 787,243.60611 C 778.58557,245.42444 757.42122,246.15642 748.60817,244.93391 z M 771.88123,218.49792 C 778.75115,217.72986 787.73852,213.20078 791.98099,208.36887 C 798.81397,200.58653 801.91687,190.17718 802.67304,172.5 C 803.85266,144.92368 797.18498,127.61489 782.66054,120.54907 C 775.13771,116.88938 763.73449,115.44379 753.63205,116.86912 C 736.29066,119.31578 727.18244,127.53534 722.39331,145.05998 C 719.92395,154.09598 719.84055,180.86546 722.25412,189.73465 C 725.87663,203.04636 732.05395,211.30408 741.68934,215.71531 C 747.06026,218.1742 757.86942,220.00787 763.5,219.41528 C 765.15,219.24163 768.92156,218.82881 771.88123,218.49792 z M 392.54591,170.25 C 375.07797,130.7875 360.56101,97.9375 360.28602,97.25 C 359.63236,95.615833 384.6897,95.508587 390.4967,97.120698 C 392.86835,97.779105 396.15167,99.911473 398.57181,102.36512 C 402.12473,105.96724 405.13669,112.34014 421.9484,151.8267 C 432.56241,176.75639 441.58466,196.78139 441.99785,196.3267 C 442.41104,195.87202 450.71408,175.38891 460.44905,150.80869 C 483.12788,93.545975 481.30605,95.607035 508.72368,96.194984 L 522.94737,96.5 L 492.43666,163.99576 C 459.43625,236.9992 459.23104,237.37034 450.15528,240.46276 C 447.20571,241.46778 441.94993,242 434.97477,242 L 424.30581,242 L 392.54591,170.25 z M 584,240.9175 C 555.31265,237.20152 535.73886,214.27584 531.98905,180 C 529.90462,160.94682 532.44017,145.14147 540.14692,129.1479 C 548.53851,111.73309 561.46894,101.12752 578.78343,97.458141 C 583.87648,96.378793 594.26231,96.03053 621.75,96.017364 L 658,96 L 658,109 L 658,122 L 632.25,122.01981 C 602.28173,122.04286 594.87894,122.85989 586.1892,127.1034 C 576.88781,131.6456 572.55939,138.65096 570.65177,152.25 L 570.12574,156 L 612.06287,156 L 654,156 L 654,168.5 L 654,181 L 612.025,181 L 570.05,181 L 570.5859,184.25 C 573.332,200.90385 577.77689,207.39273 589.66804,212.10712 C 595.19238,214.29731 597.13518,214.44777 626.5,214.95964 L 657.5,215.5 L 657.5,228.5 L 657.5,241.5 L 624,241.62973 C 605.575,241.70109 587.575,241.38058 584,240.9175 z M 911.64866,240.90136 C 892.99194,238.17602 879.65798,229.87422 872.90844,216.78148 C 867.95348,207.16987 867.68154,203.86813 867.26398,148.25 L 866.87171,96 L 878.53473,96 C 892.07171,96 895.72249,97.209275 899.23424,102.85646 C 901.48335,106.47323 901.50367,106.84169 902,153 C 902.48785,198.36968 902.55295,199.59893 904.67834,203.56969 C 907.37852,208.61433 912.93511,212.39143 919.83225,213.8706 C 922.8975,214.52798 934.89941,215 948.54922,215 L 972,215 L 972,228.5 L 972,242 L 944.75,241.87806 C 929.7625,241.81099 914.86689,241.37148 911.64866,240.90136 z M 993.66667,241.33333 C 993.3,240.96667 993,210.88744 993,174.49062 L 993,108.31457 L 995.27492,104.01262 C 998.8263,97.296865 1002.223,96 1016.2615,96 L 1028.0542,96 L 1027.7771,163.25 L 1027.5,230.5 L 1025.0955,234.36808 C 1021.4832,240.17893 1016.6669,241.95136 1004.4167,241.97804 C 998.87083,241.99012 994.03333,241.7 993.66667,241.33333 z M 1045,241.6138 C 1045,240.84251 1100.7517,112.441 1103.056,107.90532 C 1105.4618,103.16979 1111.0495,98.358383 1115.7334,96.989163 C 1117.9182,96.350491 1125.1077,96.016588 1132.8533,96.194054 L 1146.2067,96.5 L 1177.6033,168.77396 C 1194.8715,208.52464 1209,241.30341 1209,241.61568 C 1209,241.92794 1202.3625,242.02082 1194.25,241.82206 C 1181.5252,241.51031 1178.9508,241.16703 1175.5,239.32193 C 1169.1974,235.95198 1166.497,232.32347 1161.1204,220 L 1156.1031,208.5 L 1126.9083,208.5 L 1097.7135,208.5 L 1092.4089,220.38004 C 1083.7837,239.69685 1081.3528,241.2928 1059.75,241.82206 C 1051.6375,242.02082 1045,241.9271 1045,241.6138 z M 1148,181.48287 C 1148,180.85352 1129.1574,136.27424 1127.7607,133.59922 C 1126.9468,132.04039 1124.9001,136.05901 1116.3841,155.93707 C 1110.6729,169.26832 1106,180.58617 1106,181.08785 C 1106,181.60843 1115.015,182 1127,182 C 1138.55,182 1148,181.76729 1148,181.48287 z "
       style="fill:#ed1c24;fill-opacity:1" />
    <path
       sodipodi:nodetypes="csssscccccsccssssssssccccccccccccccsccccccsscccscccccccccccccsscccccccscccccscccsccsssssccccscccccccccsccccccccssssssscccssssssssccccssccccccccsccccccccccccsscccssssccccccccsscccccccccccccccccccccccc"
       id="path2163"
       d="M 894.76339,378.03177 C 884.76721,376.21229 879.72099,373.85143 874.3518,368.48224 C 866.90443,361.03486 864.58733,353.20604 865.18777,337.51951 C 865.5882,327.05829 865.88016,325.68866 869.06042,319.35265 C 875.20789,307.10509 884.40865,302.55003 903,302.55003 C 921.55579,302.55003 930.69103,307.08858 937,319.44187 L 940.5,326.29504 L 940.5,340.49539 L 940.5,354.69574 L 937,361.55352 C 932.9297,369.52873 927.59267,374.14449 919.70587,376.51042 C 913.27701,378.43899 901.0859,379.18258 894.76339,378.03177 z M 914.01107,364.75 C 917.36446,363.04868 919.06216,361.28618 920.97296,357.52237 C 923.27615,352.98568 923.5,351.43546 923.5,340.02237 C 923.5,328.51865 923.2964,327.1364 920.99716,323.03022 C 917.33482,316.48971 912.42052,314.0329 903,314.0329 C 893.56726,314.0329 888.65474,316.49159 885.02312,323.03022 C 882.91451,326.82674 882.48362,329.10679 882.16249,338.16741 C 881.71512,350.78974 883.31814,356.9823 888.27243,361.77053 C 892.56795,365.92207 895.25196,366.86113 903.03811,366.93661 C 907.92957,366.98404 910.69316,366.43333 914.01107,364.75 z M 407,346.53174 L 407,316.06347 L 395.25,315.78174 L 383.5,315.5 L 383.2001,309.75 L 382.90019,304 L 415.5,304 L 448.09981,304 L 447.7999,309.75 L 447.5,315.5 L 434.75,315.77988 L 422,316.05975 L 422,344.52988 C 422,371.66667 421.90633,373.09367 420,375 C 418.48485,376.51515 416.66667,377 412.5,377 L 407,377 L 407,346.53174 z M 458,342.0567 L 458,307.11341 L 460.22251,305.5567 C 462.06051,304.26931 466.03105,304 483.17329,304 C 512.02511,304 518.05209,305.67057 522.75,314.96996 C 528.59286,326.53576 523.13246,340.97019 511.5,344.70904 L 508.5,345.67328 L 512,346.86911 C 519.22883,349.33896 523.20409,355.44528 524.45434,366 C 524.81267,369.025 525.34278,372.7375 525.63238,374.25 L 526.15891,377 L 517.66981,377 L 509.1807,377 L 507.98961,369.75 C 505.23424,352.97847 501.64654,350.05852 483.75,350.02196 L 473,350 L 473,363.5 L 473,377 L 465.5,377 L 458,377 L 458,342.0567 z M 505.04629,334.40096 C 507.27573,332.16854 508.78336,326.91425 508.22216,323.33266 C 508.03538,322.14063 506.80547,320.00313 505.48903,318.58266 C 503.11982,316.02624 502.94261,316 488.04775,316 L 473,316 L 473,326.57205 L 473,337.14409 L 487.97503,336.82205 C 501.61498,336.52871 503.13694,336.31286 505.04629,334.40096 z M 532.24826,375.36673 C 533.92809,369.58723 561.41886,308.17317 563.07506,306.5 C 564.67233,304.88638 566.64331,304.44078 573.2774,304.19347 L 581.5,303.88693 L 597.1893,340.19347 L 612.87859,376.5 L 606.47636,376.79485 C 596.50931,377.25386 593.73879,374.96396 588.91695,362.28156 C 588.0641,360.03839 587.78239,360 572.17477,360 L 556.30004,360 L 553.57421,366.41361 C 549.76633,375.37322 548.36972,376.39197 539.26439,376.85176 C 532.26737,377.2051 531.746,377.09475 532.24826,375.36673 z M 584,347.24481 C 584,346.82946 581.32382,340.21252 578.05293,332.5405 C 572.73258,320.06141 572.00489,318.85003 571.14778,321.04569 C 570.62085,322.39556 567.89703,328.82741 565.09486,335.33869 C 562.29269,341.84997 560,347.36247 560,347.58869 C 560,347.81491 565.4,348 572,348 C 578.6,348 584,347.66017 584,347.24481 z M 622,340.5 L 622,304 L 631.48422,304 C 640.46337,304 641.12236,304.14645 643.85849,306.75 C 645.44801,308.2625 653.66761,320.29019 662.12427,333.47819 L 677.5,357.45638 L 677.76633,330.72819 L 678.03267,304 L 685.51633,304 L 693,304 L 693,340.5 L 693,377 L 684.5348,377 C 676.59718,377 675.86487,376.81801 672.7848,374.08001 C 670.97816,372.47402 662.525,360.15203 654,346.69781 L 638.5,322.2356 L 638.23418,349.6178 L 637.96836,377 L 629.98418,377 L 622,377 L 622,340.5 z M 708,375.22077 C 708,371.4749 710.1329,367.26048 712.59683,366.13784 C 714.1759,365.41836 721.89723,365 733.59671,365 C 753.16117,365 756.69236,364.31187 758.97036,360.05539 C 761.34196,355.624 758.92135,348.97538 754.29716,347.2197 C 752.75872,346.63559 744.71094,345.93393 736.4132,345.66045 C 720.05511,345.12132 715.75543,344.04185 710.66809,339.19695 C 700.28923,329.31269 704.9813,309.31825 718.64002,305.226 C 721.40254,304.39833 730.9406,304 747.99686,304 L 773.26168,304 L 772.67359,307.62403 C 771.52664,314.6918 771.22813,314.78487 748.4958,315.16218 C 729.64518,315.47506 727.93435,315.65561 725.32131,317.60792 C 722.91311,319.40719 722.5,320.41636 722.5,324.5 C 722.5,328.58341 722.91319,329.59291 725.32092,331.39208 C 727.84808,333.28049 729.87874,333.55344 744.82092,334.01314 C 759.6533,334.46947 762.02748,334.78458 766.26413,336.85919 C 777.53094,342.37633 780.46861,359.702 771.80948,369.56421 C 765.80878,376.39863 765.47498,376.4649 735.25,376.82155 C 708.92218,377.13222 708,377.07804 708,375.22077 z M 790,340.5 L 790,304 L 814.05718,304 C 842.25989,304 845.63417,304.57889 851.464,310.41752 C 862.68406,321.65451 859.44765,342.80359 845.54137,349.12034 C 842.11365,350.67734 838.80482,350.95941 823.75,350.97804 L 806,351 L 806,364 L 806,377 L 798,377 L 790,377 L 790,340.5 z M 835.52794,337.80531 C 839.02174,336.21343 841,332.11648 841,326.47274 C 841,322.69248 840.46529,321.31145 838.07692,318.92308 L 835.15385,316 L 820.57692,316 L 806,316 L 806,327.5 L 806,339 L 819.45295,339 C 827.75326,339 833.91017,338.54242 835.52794,337.80531 z M 951,343.13486 C 951,310.03217 951.04824,309.20839 953.14269,306.54573 L 955.28538,303.82174 L 979.39269,304.19511 C 1006.0504,304.60797 1007.8578,304.97343 1013.693,311.13076 C 1019.6288,317.39427 1020.4707,328.00452 1015.7037,336.47224 C 1014.1177,339.28961 1011.9284,341.21351 1008.1737,343.08963 L 1002.8799,345.73479 L 1006.69,347.26898 C 1013.7135,350.09713 1016.2361,354.22759 1017.9925,365.77523 C 1018.5551,369.47385 1019.2455,373.5125 1019.5267,374.75 C 1020.0259,376.94619 1019.836,377 1011.5864,377 C 1001.9812,377 1002.8535,377.88703 1000.9775,366.21166 C 998.89255,353.23622 994.21232,350 977.53212,350 L 967,350 L 967,363.5 L 967,377 L 959,377 L 951,377 L 951,343.13486 z M 995.88116,335.89158 C 999.71031,334.55674 1002,330.53291 1002,325.13855 C 1002,321.94338 1001.4053,320.67737 998.92327,318.58889 C 995.92448,316.06558 995.48121,316 981.42327,316 L 967,316 L 967,326.5 L 967,337 L 979.85078,337 C 986.9187,337 994.13238,336.50121 995.88116,335.89158 z M 1049,346 L 1049,315 L 1037,315 L 1025,315 L 1025,309.5 L 1025,304 L 1057,304 L 1089,304 L 1089,309.5 L 1089,315 L 1076.5,315 L 1064,315 L 1064,343.54545 L 1064,372.09091 L 1061.5455,374.54545 C 1059.588,376.50287 1058.069,377 1054.0455,377 L 1049,377 L 1049,346 z "
       style="fill:#666666;fill-opacity:1" />
  </g>
</svg>
